<?xml version="1.0" encoding="utf-8"?>
<!-- Generator: Adobe Illustrator 24.2.3, SVG Export Plug-In . SVG Version: 6.00 Build 0)  -->
<svg version="1.1" id="Layer_1" xmlns="http://www.w3.org/2000/svg" xmlns:xlink="http://www.w3.org/1999/xlink" x="0px" y="0px"
	 viewBox="0 0 500 500" style="enable-background:new 0 0 500 500;" xml:space="preserve">
<style type="text/css">
	.st0{fill:#8ABBE7;}
	.st1{fill:#455A64;}
	.st2{fill:#1480C9;}
	.st3{opacity:5.000000e-02;enable-background:new    ;}
	.st4{opacity:0.4;fill:#FFFFFF;enable-background:new    ;}
	.st5{opacity:0.2;enable-background:new    ;}
	.st6{opacity:0.1;enable-background:new    ;}
	.st7{fill:#FFFFFF;}
	.st8{opacity:0.2;fill:#FFFFFF;enable-background:new    ;}
	.st9{fill:#FF8C00;}
	.st10{opacity:0.2;}
	.st11{opacity:0.8;}
	.st12{opacity:0.15;enable-background:new    ;}
	.st13{opacity:0.15;}
	.st14{fill:#37474F;}
	.st15{fill:#263238;}
	.st16{opacity:0.3;enable-background:new    ;}
	.st17{opacity:0.5;enable-background:new    ;}
	.st18{opacity:0.7;enable-background:new    ;}
	.st19{fill:#FAFAFA;}
	.st20{fill:#FFA8A7;}
	.st21{opacity:0.3;}
	.st22{fill:#635545;}
	.st23{fill:#F28F8F;}
</style>
<circle class="st0" cx="254.7" cy="237" r="233"/>
<g id="freepik--World--inject-1--inject-5">
	<g id="freepik--world--inject-1--inject-5">
		<path class="st1" d="M324.5,174.5c15.3,38.1-3.3,81.4-41.4,96.6c-38.1,15.2-81.4-3.3-96.6-41.4s3.3-81.4,41.4-96.6
			c14.1-5.6,29.5-6.8,44.3-3.4C295.9,135.2,315.5,151.9,324.5,174.5z"/>
		<path class="st2" d="M246.6,138.7c-3.4,0.1-7.8,1.3-4.6,3.2s5.2,2.1,5.2,4.6s-1.6,5.1-0.8,6.9s2.1,3.8,3.4,3.3s4.8-4.6,6.9-4.4
			c2.1,0.2,8.9,0.5,9.9-1.8s2-2.1,3.7-4.6s1.6-5.8-0.5-5.8s-2.3,0.8-5.6,0.6c-3.3-0.2-4.9-2.5-8.2-1.9
			C252.7,139.4,249.1,138.7,246.6,138.7z"/>
		<path class="st2" d="M234,139.6c-3.9,2.1-12,5.2-15.7,4.1c-1.9-0.5-4.1-1.3-6.5-1.7c-14.5,10.5-24.7,26-28.8,43.4
			c0.9,1.9,2,3.6,3.4,5.2c2.9,3.4,6,3.9,9.7,4.6s2.6,2.8,4.4,5s2.6,3.5,4.7,4.7s-0.7,3.4-1.6,5.8s-1.1,3.8,0.7,8.6s6.7,8.9,8.2,10.8
			s-1,4.1-0.4,8s0.4,14.5,4.2,20.4c3.8,5.9,6.1,5.2,5.8,1.2s-1.6-7.8,0.7-10.8s7-2.2,8.6-7.7s2.6-5.2,5.1-7.1s1.4-3.5,3.8-7.7
			s3.1-8.2-0.4-10s-5.8-1.6-8.8-5.7c-3.2-4.3-7.3-7.8-12-10.4c-4.3-2.3-11.2,0.5-13.9-0.3s-4.5-6-4.3-8s-1.9-2.5-3.8-2.1
			s-3.1-0.8-3.6-3.4s3.6-6,6.9-6.2s5.1,1.3,5.8,5.6c0.4,3.6,3.1,6.5,6.6,7.2c3.1,0.8,1.1-2.4-1-4.6s-2.3-4.2-0.7-9s5.7-4.4,8.7-8.9
			s3.6-1.1,6.6-0.7s2.6-1.2,3.7-4s5-0.4,8.2-2.6s-3.4-5.8-3-8.8s3.5-2.9,1.8-7.5c-1.7-4.6,0.6-4.7,1.8-6.4
			C240.1,138.9,237.8,137.5,234,139.6z M229.5,150.7c-1,2.3-1.9,1.8-3.5,4.3c-1.4,2.1-3.5,3.5-5.9,4c-1.7,0.2-4.4-2.8-4.5-4.6
			c-0.1-1.8,2.5-2.4,5.5-2.8c3-0.5,5.9-1.8,8.2-3.8C231.4,146.2,230.5,148.5,229.5,150.7z"/>
		<path class="st2" d="M329.6,196.5v0.2c-1.3,0.5-2.4,1.6-2.9,2.9c-1.7,4.1-2,2.3-6,5.1s-2.5,5-2.2,7.9s-4.4,6-6.6,7
			s-3.3,7.4-2.5,10.6s-3,4.4-5.3,7.3s-3.6,7.6-5.1,9.9c-1.5,2.3-4.2,3.6-6.9,3.2c-2.7-0.5-5.2-5-6.7-8.9c-1.5-4-1.9-8.3-1.1-12.4
			c0.9-4.2,0.5-3.7-0.5-10.3c-0.5-4.5-3.8-8.2-8.2-9.2c-2.6-0.6-6.8,0.9-9.1-0.5s-3.3-3.3-4.7-9.5s1.6-7.6,4-11
			c2.9-3.8,6.9-6.6,11.4-8.1c3.3-0.9,6.8-0.5,9.8,1.3c2.6,1.3,3.8,4.2,5.7,4.4s3.5-0.8,5.3-0.4s3.1,1.3,4.9,1s0.7-2.4,0.4-3.5
			s-1.9-0.9-4.1-0.9s-2.7-0.6-3.5-2.1s-2-0.2-3.1-0.8s-0.9,2.1-0.9,3.1s-0.9-0.8-0.9-0.8s-0.9,1.4-1.3,0.8s0.5-2.2,0.4-3.8
			s-2.4-1.2-3.9-2.4s-3.6-1.5-5.4-0.8c-2,0.6-2.3,0.2-3.2,1.9s-5.1,2.9-6.5,2.7s-0.4-3,0.8-5.4s3.5-1.6,5-4.1s-0.5-2.8-1.9-3.2
			s-1.8-1.7-0.4-4.8s3.3-2.3,4.1-0.8c0.9,1.5,2.6,2.3,4.4,2.2c1.8,0,1.4-1.3,1.4-4s1.2-4.1,3.6-5.1s6.5-2.7,8-4.1
			c1.5-1.4,4.3-0.5,5.8,1.1c1.5,1.6,4.7,2.2,8.1,2.7c0.9,0.1,1.8-0.2,2.4-0.8C322.2,165.9,328.4,180.8,329.6,196.5z"/>
		<path class="st2" d="M315.7,233c-1.8-0.3-1.6,0.3-2.7,1.7s-2.6,3-2.3,4.5s0.4,3.3,1.7,2.2s0.8-2.4,2.6-3.2S318.4,233.5,315.7,233z
			"/>
		<path class="st3" d="M235.4,239.4c-36.8-30.2-35.6-88.8-3.4-107.7l0,0c-1.4,0.5-2.7,0.9-4.1,1.5c-38.1,15.3-56.6,58.5-41.4,96.6
			s58.5,56.6,96.6,41.4c18.5-7.4,33.2-21.9,40.9-40.3C313.7,245.2,272.1,269.5,235.4,239.4z"/>
	</g>
	<g id="freepik--Icons--inject-1--inject-5">
		<g id="freepik--Contact--inject-1--inject-5">
			<path class="st2" d="M427.7,132.5c-2.5-1.4-5.9-1.2-9.7,0.9c-7.6,4.4-13.7,15-13.7,23.7c0,4.4,1.5,7.5,4,8.9l4.8,2.8
				c2.5,1.4,5.9,1.2,9.7-1c7.6-4.4,13.7-15,13.7-23.7c0-4.4-1.5-7.4-4-8.9"/>
			<path class="st2" d="M422.8,136.3c-7.6,4.4-13.7,15-13.7,23.7c0,8.7,6.1,12.3,13.7,7.9s13.7-15,13.7-23.7
				S430.4,131.9,422.8,136.3z"/>
			<path class="st2" d="M430.4,155.7v1c-1.8,3.2-4.4,6-7.6,7.9c-2.9,1.7-5.6,1.9-7.6,0.8v-2.1c0.2-4.3,2.5-8.3,6.2-10.7l2-1.2
				c1.8-1,3.5-1.2,4.8-0.4C429.5,151.8,430.4,153.6,430.4,155.7z"/>
			<path class="st4" d="M427.7,132.5l4.9,2.8c-2.5-1.4-5.9-1.2-9.7,0.9c-5,2.9-9.3,8.4-11.7,14.3l-4.9-2.8
				c2.4-5.9,6.8-11.5,11.7-14.3C421.8,131.3,425.2,131.1,427.7,132.5z"/>
			<path class="st5" d="M413,168.8l-4.6-2.7c-2.5-1.4-4-4.5-4-8.9l4.9,2.8C409.1,164.3,410.6,167.3,413,168.8z"/>
			<path class="st6" d="M406.3,147.8l4.9,2.8c-1.3,3-1.9,6.2-2,9.4l0,0l-4.9-2.8C404.4,154,405,150.8,406.3,147.8z"/>
			<path class="st7" d="M421.1,151c-0.5,0-0.9-0.1-1.3-0.3c-1-0.7-1.5-1.8-1.4-3c0.1-2.8,1.6-5.3,3.9-6.8l0,0c1.3-1,3.1-0.8,4.1,0.5
				c0.5,0.6,0.7,1.5,0.6,2.3c-0.1,2.8-1.6,5.3-3.9,6.8C422.5,150.8,421.8,151,421.1,151z"/>
			<path class="st7" d="M428.2,151.1c-1.3-0.8-3-0.6-4.8,0.4l-2,1.2c-3.7,2.4-6,6.3-6.2,10.7v2.1c2,1.1,4.6,0.9,7.6-0.8
				c3.1-2,5.7-4.7,7.6-7.9v-1C430.4,153.6,429.6,151.9,428.2,151.1z"/>
		</g>
		<g id="freepik--Twitter--inject-1--inject-5">
			<path class="st2" d="M357.4,250.6c1.4-3.2,2.1-6.6,2.1-10.1c0.7-1.1,1.3-2.2,1.7-3.4c-0.6,0.7-1.3,1.3-2,1.9
				c0.7-1,1.3-2.2,1.5-3.5c-0.6,0.9-1.4,1.7-2.2,2.4c-0.8-0.6-1.8-0.6-2.5,0c-2.4,1.7-3.7,4.7-3.4,7.7c-2.9,1.5-5.5,1.1-7.2-0.7
				c-0.9,2.6-0.5,5.1,1.1,5.6c-0.5,0.3-1,0.4-1.6,0.3c0,2.2,1.1,3.5,2.8,3c-0.4,0.4-1,0.8-1.6,1c0.2,1.1,1.2,1.9,2.3,1.7
				c0.3-0.1,0.6-0.2,0.9-0.4c-1.2,2.1-3,3.8-5.2,4.9c1.8,0.4,3.8,0,5.4-1C353,258.1,355.7,254.5,357.4,250.6"/>
		</g>
		<g id="freepik--Instagram--inject-1--inject-5">
			<path class="st2" d="M91.1,238c2.5-1.4,5.9-1.2,9.7,1c7.6,4.4,13.7,15,13.7,23.7c0,4.4-1.6,7.4-4,8.9l-4.8,2.8
				c-2.5,1.4-5.9,1.2-9.7-0.9c-7.6-4.4-13.7-15-13.7-23.7c0-4.4,1.5-7.4,4-8.9"/>
			<path class="st2" d="M96,241.7c7.6,4.4,13.7,15,13.7,23.7c0,8.7-6.1,12.3-13.7,7.9c-7.6-4.4-13.7-15-13.7-23.7
				C82.3,240.9,88.4,237.4,96,241.7z"/>
			<path class="st7" d="M95,253c-1.7-1-3,0.1-3,2.3c0,2.3,1.1,4.5,3,5.8c1.7,1,3-0.1,3-2.3C98,256.5,96.9,254.4,95,253z M95,259.7
				c-1.2-0.9-2-2.3-2-3.8c0-1.4,0.9-2.1,2-1.5c1.2,0.9,2,2.3,2,3.8S96.1,260.4,95,259.7z"/>
			<path class="st7" d="M99.5,254.7c0,0.5-0.3,0.8-0.7,0.5c-0.4-0.3-0.7-0.8-0.7-1.4c0-0.5,0.3-0.8,0.7-0.5
				C99.2,253.6,99.5,254.1,99.5,254.7"/>
			<path class="st7" d="M100.7,251.1L90.1,245c-0.8-0.4-1.3,0-1.3,1v14.1c0,1,0.5,2,1.3,2.6l3.8,2.2l3.1,1.8l3.6,2.1
				c0.7,0.4,1.3,0,1.3-1v-14.1C102,252.6,101.5,251.7,100.7,251.1z M100.7,267l-10.1-5.8c-0.3-0.2-0.5-0.6-0.5-0.9v-13.5l10.1,5.8
				c0.3,0.2,0.5,0.6,0.5,0.9V267z"/>
			<path class="st4" d="M91.1,238l-4.8,2.8c2.5-1.4,5.9-1.2,9.7,1c4.9,2.9,9.3,8.4,11.7,14.3l4.8-2.8c-2.4-5.9-6.7-11.5-11.7-14.3
				C97,236.7,93.6,236.5,91.1,238z"/>
			<path class="st5" d="M105.8,274.2l4.6-2.7c2.5-1.4,4-4.5,4-8.9l-4.8,2.8C109.7,269.7,108.2,272.7,105.8,274.2z"/>
			<path class="st6" d="M112.5,253.3l-4.8,2.8c1.3,3,1.9,6.2,2,9.4l0,0l4.8-2.8C114.5,259.4,113.8,256.2,112.5,253.3z"/>
		</g>
		<g id="freepik--Facebook--inject-1--inject-5">
			<path class="st2" d="M350.4,65.4c-2.5-1.4-5.9-1.2-9.7,1c-7.6,4.4-13.7,15-13.7,23.7c0,4.4,1.5,7.5,4,8.9l4.8,2.8
				c2.5,1.4,5.9,1.2,9.7-0.9c7.6-4.4,13.7-15,13.7-23.7c0-4.4-1.5-7.4-4-8.9"/>
			<path class="st2" d="M345.6,69.2c-7.6,4.4-13.7,15-13.7,23.7s6.1,12.3,13.7,7.9s13.7-15,13.7-23.7S353.1,64.8,345.6,69.2z"/>
			<path class="st4" d="M350.4,65.4l4.9,2.8c-2.5-1.4-5.9-1.2-9.7,1c-5,2.9-9.3,8.4-11.7,14.3l-4.9-2.8c2.4-5.9,6.7-11.5,11.7-14.3
				C344.5,64.2,347.9,64,350.4,65.4z"/>
			<path class="st5" d="M335.7,101.7l-4.6-2.7c-2.5-1.4-4-4.5-4-8.9l4.9,2.8C331.9,97.2,333.3,100.2,335.7,101.7z"/>
			<path class="st6" d="M329,80.7l4.9,2.8c-1.3,3-1.9,6.2-2,9.4l0,0l-4.9-2.8C327.1,86.9,327.7,83.7,329,80.7z"/>
			<g id="freepik--facebook--inject-1--inject-5">
				<path class="st7" d="M343.4,98.3l3.5-2V84.7l2.4-1.4l0.3-4l-2.7,1.5v-2.3c0-0.9,0.1-1.4,0.8-1.7l1.9-1.1v-4l-2.4,1.4
					c-2.4,1.3-3.9,3.9-3.8,6.6v3.1l-1.8,1v3.9l1.8-1L343.4,98.3z"/>
			</g>
		</g>
		<g id="freepik--Like--inject-1--inject-5">
			<path class="st2" d="M311,301.9c-2.5-1.4-5.9-1.2-9.7,1c-7.6,4.4-13.7,15-13.7,23.7c0,4.4,1.5,7.5,4,8.9l4.8,2.8
				c2.5,1.4,5.9,1.2,9.7-1c7.6-4.4,13.7-15,13.7-23.7c0-4.4-1.5-7.4-4-8.9"/>
			<path class="st2" d="M306.2,305.7c-7.6,4.4-13.7,15-13.7,23.7s6.1,12.3,13.7,7.9s13.7-15,13.7-23.7S313.7,301.3,306.2,305.7z"/>
			<path class="st4" d="M311,301.9l4.9,2.8c-2.5-1.4-5.9-1.2-9.7,1c-5,2.9-9.3,8.4-11.7,14.4l-4.9-2.8c2.4-5.9,6.7-11.5,11.7-14.3
				C305.1,300.7,308.5,300.4,311,301.9z"/>
			<path class="st5" d="M296.3,338.1l-4.7-2.7c-2.5-1.4-4-4.5-4-8.9l4.9,2.8C292.5,333.6,293.9,336.7,296.3,338.1z"/>
			<path class="st6" d="M289.6,317.2l4.9,2.8c-1.3,3-1.9,6.2-2,9.4l0,0l-4.9-2.8C287.7,323.3,288.3,320.2,289.6,317.2z"/>
			<path class="st7" d="M303,320.7c0,0,2.2-5.1,2.4-5.8c0.1-1.3,0.1-2.5,0-3.8c0-0.5,2-1.9,2.7-0.5c0.6,1.5,0.7,3.2,0.3,4.7l4.9-2.9
				c1-0.6,1.5,0.3,1.5,0.9c0,0.8-0.3,1.5-0.8,2.1c0,0,1-0.3,1,1c-0.1,0.9-0.5,1.8-1.2,2.4c0,0,0.3,0.3,0.3,1.2
				c-0.1,1-0.6,1.8-1.4,2.5c0.1,0.4,0.2,0.8,0.2,1.2c-0.1,1.2-0.8,2.2-1.8,2.8l-8.1,4.8V320.7z"/>
			<polygon class="st7" points="298.3,335.4 301.9,333.4 301.8,321 298.3,323.1 			"/>
		</g>
		<g id="freepik--Heart--inject-1--inject-5">
			<path class="st2" d="M141.3,175.3l2.3-0.2c3-0.2,6.5-1.4,6.5-5.7c-0.2-3.2-1.9-6.1-4.5-7.8c-1.9-1.1-3.6-0.7-4.3,1
				c-0.6-2.4-2.1-4.5-4.2-5.9c-2.5-1.4-4.5-0.3-4.5,2.6c0,4.2,3.5,9.5,6.5,13.2L141.3,175.3z"/>
		</g>
		<g id="freepik--Play--inject-1--inject-5">
			<path class="st2" d="M193.9,298.9c2.5-1.4,5.9-1.2,9.7,1c7.6,4.4,13.7,15,13.7,23.7c0,4.4-1.6,7.5-4,8.9l-4.8,2.8
				c-2.5,1.4-5.9,1.2-9.7-1c-7.6-4.4-13.7-15-13.7-23.7c0-4.4,1.5-7.4,4-8.9"/>
			<path class="st2" d="M198.7,302.7c7.6,4.4,13.7,15,13.7,23.7s-6.1,12.3-13.7,7.9s-13.7-15-13.7-23.7S191.2,298.4,198.7,302.7z"/>
			<path class="st4" d="M193.9,298.9l-4.9,2.8c2.5-1.4,5.9-1.2,9.7,1c4.9,2.9,9.3,8.4,11.7,14.3l4.9-2.8
				c-2.4-5.9-6.7-11.5-11.7-14.3C199.8,297.7,196.4,297.5,193.9,298.9z"/>
			<path class="st5" d="M208.6,335.2l4.6-2.7c2.5-1.4,4-4.5,4-8.9l-4.8,2.8C212.4,330.7,211,333.7,208.6,335.2z"/>
			<path class="st6" d="M215.3,314.2l-4.9,2.8c1.3,3,1.9,6.2,2,9.4l0,0l4.9-2.8C217.2,320.4,216.6,317.2,215.3,314.2z"/>
			<path class="st7" d="M194.4,309.8v13.3c0,1,0.4,1.7,0.9,1.6l9.2-1.8c0.5-0.1,0.3-1-0.5-2l-8.3-11.1
				C195,308.9,194.4,308.8,194.4,309.8z"/>
		</g>
		<g id="freepik--Music--inject-1--inject-5">
			<path class="st2" d="M82.9,125.6c2.5-1.4,5.9-1.2,9.7,0.9c7.6,4.4,13.7,15,13.7,23.7c0,4.4-1.5,7.5-4,8.9l-4.8,2.8
				c-2.5,1.4-5.9,1.2-9.7-1c-7.6-4.4-13.7-15-13.7-23.7c0-4.4,1.5-7.4,4-8.9"/>
			<path class="st2" d="M87.8,129.4c7.6,4.4,13.7,15,13.7,23.7s-6.1,12.3-13.7,7.9s-13.7-15-13.7-23.7S80.2,125,87.8,129.4z"/>
			<path class="st4" d="M82.9,125.6l-4.8,2.8c2.5-1.4,5.9-1.2,9.7,1c5,2.9,9.3,8.4,11.7,14.3l4.8-2.8c-2.4-6-6.7-11.5-11.7-14.4
				C88.8,124.4,85.4,124.1,82.9,125.6z"/>
			<path class="st5" d="M97.6,161.8l4.6-2.7c2.5-1.4,4-4.5,4-8.9l-4.8,2.8C101.5,157.3,100,160.4,97.6,161.8z"/>
			<path class="st6" d="M104.3,140.9l-4.8,2.8c1.3,3,1.9,6.2,2,9.4l0,0l4.8-2.8C106.3,147,105.6,143.8,104.3,140.9z"/>
			<path class="st7" d="M84.6,133.5v13.6c-0.3-0.3-0.6-0.5-0.9-0.7c-1-0.6-1.9,0.2-1.9,1.8c0,1.5,0.7,3,1.9,3.9c1,0.6,2.3,0,2.3-1.6
				V138l6,3.5v9.8c-0.3-0.3-0.6-0.5-0.9-0.7c-1-0.6-1.5,0.4-1.5,2c0,1.6,0.7,3,1.9,4c1,0.6,1.9-0.2,1.9-1.8l0,0v-16.3L84.6,133.5z"
				/>
		</g>
		<g id="freepik--Image--inject-1--inject-5">
			<path class="st2" d="M421.5,243.7c-2.5-1.4-5.9-1.2-9.7,1c-7.6,4.4-13.7,15-13.7,23.7c0,4.4,1.5,7.4,4,8.9l4.8,2.8
				c2.5,1.4,5.9,1.2,9.7-1c7.6-4.4,13.7-15,13.7-23.7c0-4.4-1.5-7.4-4-8.9"/>
			<path class="st2" d="M416.6,247.5c-7.6,4.4-13.7,15-13.7,23.7c0,8.7,6.1,12.3,13.7,7.9c7.6-4.4,13.7-15,13.7-23.7
				S424.2,243.2,416.6,247.5z"/>
			<path class="st4" d="M421.5,243.7l4.9,2.8c-2.5-1.4-5.9-1.2-9.7,1c-5,2.9-9.3,8.4-11.7,14.3l-4.9-2.8c2.4-5.9,6.8-11.5,11.7-14.3
				C415.6,242.5,419,242.3,421.5,243.7z"/>
			<path class="st5" d="M406.8,280l-4.6-2.7c-2.5-1.4-4-4.5-4-8.9l4.9,2.8C402.9,275.5,404.4,278.5,406.8,280z"/>
			<path class="st6" d="M400.1,259l4.9,2.8c-1.3,3-1.9,6.2-2,9.4l0,0l-4.9-2.8C398.2,265.2,398.8,262,400.1,259z"/>
			<path class="st7" d="M409.8,258.7v17.2c0,0.5,0.4,0.7,0.8,0.5l12.1-7c0.5-0.3,0.8-0.8,0.8-1.4v-17.2c0-0.5-0.4-0.7-0.8-0.5
				l-12.1,7C410.1,257.6,409.8,258.1,409.8,258.7z M421.9,268.7l-10.5,6.1c-0.5,0.3-0.8,0-0.8-0.5v-14.9c0-0.6,0.3-1.1,0.8-1.4
				l10.5-6.1c0.5-0.3,0.8-0.1,0.8,0.5v14.9C422.7,267.8,422.4,268.3,421.9,268.7L421.9,268.7z"/>
			<polygon class="st7" points="410.6,275.2 410.6,270.4 414.4,263 418.4,267.4 417.5,265.3 419.1,262.3 422.7,264.8 422.7,268.2 
							"/>
			<path class="st7" d="M419.7,256.3c0.5-0.3,0.9,0.1,0.9,0.9c0,0.7-0.3,1.4-0.9,1.9c-0.5,0.3-0.9-0.1-0.9-0.9
				C418.8,257.5,419.1,256.8,419.7,256.3z"/>
		</g>
		<g id="freepik--speach-bubble--inject-1--inject-5">
			<path class="st2" d="M174.1,106.1l-2.7-5.1l2.2-6.3v-3.9l-6.7,3.8v3.8l2.9,5c0,0.1,0.1,0.1,0.2,0.2l0,0L174.1,106.1z"/>
			<path class="st5" d="M174.1,106.1l-2.7-5.1l2.2-6.3v-3.9l-6.7,3.8v3.8l2.9,5c0,0.1,0.1,0.1,0.2,0.2l0,0L174.1,106.1z"/>
			<path class="st2" d="M202.7,60.9c-0.1-1.4-0.8-2.7-2-3.5l-1.6-0.9c-1.3-0.6-2.7-0.6-4,0l-37.7,21.8c-1.2,0.8-1.9,2.1-2,3.5v19.5
				c0.1,1.4,0.8,2.7,2,3.5l1.6,0.9c1.3,0.6,2.7,0.6,4,0l8-4.6l2.9,5c0.1,0.2,0.4,0.3,0.6,0.2c0.1-0.1,0.2-0.1,0.2-0.2l3-8.7l23-13.3
				c1.2-0.8,1.9-2.1,2-3.5V60.9z"/>
			<path class="st5" d="M155.4,101.3c0.1,1.4,0.8,2.7,2,3.5l1.6,0.9c1.1,0.6,2.5,0.6,3.6,0.2c-0.9,0.3-1.7-0.2-1.7-1.3V85
				c0-0.7,0.2-1.4,0.6-2l-5.6-3.3c-0.4,0.6-0.6,1.3-0.6,2L155.4,101.3L155.4,101.3z"/>
			<path class="st8" d="M202.7,60.4c-0.2-0.9-1-1.1-1.9-0.6l-37.7,21.8c-0.6,0.3-1.1,0.8-1.4,1.5l-5.6-3.3c0.3-0.6,0.8-1.1,1.4-1.5
				l37.7-21.8c1.3-0.6,2.7-0.6,4,0l1.6,0.9C201.7,58.1,202.5,59.2,202.7,60.4z"/>
			<path class="st9" d="M172.1,85.3c-1.6,1-2.6,2.7-2.7,4.6c0,1.7,1.2,2.4,2.7,1.5c1.6-1,2.6-2.7,2.7-4.6
				C174.7,85.2,173.5,84.5,172.1,85.3z"/>
			<path class="st9" d="M181.9,79.6c-1.6,1-2.6,2.7-2.7,4.6c0,1.7,1.2,2.4,2.7,1.5c1.6-1,2.6-2.7,2.7-4.6
				C184.6,79.5,183.4,78.8,181.9,79.6z"/>
			<path class="st9" d="M191.7,73.9c-1.6,1-2.6,2.7-2.7,4.6c0,1.7,1.2,2.4,2.7,1.5c1.6-1,2.6-2.7,2.7-4.6
				C194.4,73.8,193.2,73.1,191.7,73.9z"/>
		</g>
		<g id="freepik--Letter--inject-1--inject-5">
			<path class="st2" d="M357.2,172.6l17.3-10c0.4-0.3,0.6-0.7,0.6-1.1v-15.6c0-0.4-0.3-0.6-0.6-0.4l-17.3,10
				c-0.4,0.3-0.6,0.7-0.6,1.1v15.6C356.6,172.6,356.9,172.8,357.2,172.6z"/>
			<path class="st7" d="M356.6,172.2v-0.3l7.2-11.9l-7.1-3.9V156l8.8,3.7c0.2,0.1,0.4-0.1,0.6-0.4l8.8-13.8l0,0l-7,12.1l7.1,3.6v0.3
				c0,0.2-0.1,0.5-0.2,0.7l-7.3-4l-1,1.8c-0.4,0.7-1,1-1.4,0.8l-1-0.6l-7.3,12.4C356.7,172.5,356.6,172.3,356.6,172.2z"/>
		</g>
		<g id="freepik--Money--inject-1--inject-5">
			<path class="st2" d="M160.6,236.3c0.5,0.6,1,1.2,1.4,1.8c0.4,0.7,0.8,1.4,1.1,2.1c0.3,0.7,0.5,1.4,0.7,2.1
				c0.2,0.6,0.3,1.2,0.3,1.9c0,0.1,0,0.3-0.1,0.4c-0.1,0.1-0.2,0.1-0.3,0.1l-2.3-1.3c-0.2-0.1-0.3-0.2-0.4-0.4
				c-0.1-0.2-0.2-0.4-0.3-0.6l-0.2-0.4c-0.1-0.2-0.2-0.4-0.3-0.6c-0.2-0.3-0.3-0.5-0.5-0.7s-0.5-0.5-0.8-0.6
				c-0.2-0.1-0.4-0.2-0.6-0.3c-0.2-0.1-0.4-0.1-0.6-0.1c-0.2,0-0.3,0.1-0.4,0.3c-0.1,0.2-0.2,0.5-0.1,0.7c0,0.3,0.1,0.6,0.2,0.9
				c0.1,0.3,0.3,0.6,0.6,0.9c0.3,0.4,0.6,0.8,1,1.1c0.4,0.4,1,0.9,1.6,1.5s1.2,1.2,1.7,1.9c0.5,0.6,0.9,1.3,1.2,2s0.6,1.5,0.7,2.3
				c0.2,0.9,0.2,1.8,0.2,2.7c0,0.8-0.1,1.5-0.3,2.3c-0.2,0.5-0.4,1.1-0.8,1.5c-0.3,0.4-0.8,0.6-1.2,0.7c-0.5,0.1-1.1,0.1-1.6-0.1
				v2.2c0,0.2,0,0.4-0.1,0.5s-0.2,0.1-0.3,0.1l0,0l-2.3-1.3c-0.2-0.1-0.3-0.3-0.3-0.4c-0.1-0.2-0.1-0.4-0.1-0.7v-2.3
				c-0.6-0.6-1.1-1.2-1.5-1.8c-0.4-0.7-0.8-1.4-1.2-2.1c-0.3-0.7-0.6-1.5-0.8-2.2s-0.3-1.4-0.3-2.1c0-0.1,0-0.3,0.1-0.4
				c0.1-0.1,0.2-0.1,0.3-0.1l2.3,1.3c0.1,0.1,0.3,0.2,0.4,0.3c0.1,0.2,0.2,0.3,0.3,0.5c0,0.1,0.1,0.3,0.2,0.5
				c0.1,0.3,0.2,0.5,0.4,0.8s0.4,0.6,0.6,0.9c0.2,0.3,0.6,0.5,0.9,0.7c0.5,0.3,1,0.5,1.6,0.5c0.4,0,0.6-0.3,0.6-0.9
				c0-0.3-0.1-0.6-0.2-0.9c-0.2-0.4-0.4-0.7-0.7-1c-0.3-0.4-0.7-0.8-1.2-1.2s-1-1-1.7-1.6c-1.2-1.1-2.1-2.4-2.7-3.9
				c-0.6-1.5-0.9-3.2-0.8-4.8c0-0.7,0.1-1.3,0.2-2c0.1-0.5,0.4-1,0.7-1.5c0.3-0.4,0.6-0.7,1.1-0.9c0.4-0.2,0.9-0.2,1.4-0.2v-2.3
				c0-0.2,0-0.4,0.1-0.5s0.2-0.1,0.3-0.1l2.3,1.3c0.2,0.1,0.3,0.3,0.3,0.4c0.1,0.2,0.1,0.4,0.1,0.7L160.6,236.3z"/>
		</g>
		<g id="freepik--Pin--inject-1--inject-5">
			<path class="st2" d="M267.2,74.2l-3.2-1.8l0,0c-1.5-1-3.6-1-6,0.4c-4.6,2.7-8.4,9.5-8.4,15.1v1.3c0,5.7,7.6,11.9,7.6,11.9
				l3.1,1.8c0,0-1.9-2.1-1.7-2.6c2-4.2,7.6-16.1,7.6-20.7v-1.3c0-0.9-0.1-1.9-0.4-2.8l0.4,0.2L267.2,74.2z M258.1,87.2
				c-2.3,1.3-4.2,0.3-4.2-2.4c1.3-0.2,4.4-5.5,4.2-7.3c2.3-1.3,4.2-0.3,4.2,2.4C262.1,82.9,260.6,85.6,258.1,87.2L258.1,87.2z"/>
			<g class="st10">
				<path d="M267.2,74.2l-3.2-1.8l0,0c-1.5-1-3.6-1-6,0.4c-4.6,2.7-8.4,9.5-8.4,15.1v1.3c0,5.7,7.6,11.9,7.6,11.9l3.1,1.8
					c0,0-1.9-2.1-1.7-2.6c2-4.2,7.6-16.1,7.6-20.7v-1.3c0-0.9-0.1-1.9-0.4-2.8l0.4,0.2L267.2,74.2z M258.1,87.2
					c-2.3,1.3-4.2,0.3-4.2-2.4c1.3-0.2,4.4-5.5,4.2-7.3c2.3-1.3,4.2-0.3,4.2,2.4C262.1,82.9,260.6,85.6,258.1,87.2L258.1,87.2z"/>
			</g>
			<path class="st2" d="M269.8,80.2c0-5.7-3.8-8.1-8.4-5.5c-4.6,2.6-8.4,9.5-8.4,15.1v1.3c0,4.4,5,9.5,7.3,11.6
				c0.5,0.4,1.2,0.4,1.6-0.1c0.1-0.1,0.1-0.2,0.2-0.3c2-4,7.7-16.2,7.7-20.9L269.8,80.2L269.8,80.2z M261.4,89.2
				c-2.3,1.3-4.2,0.3-4.2-2.4c0.2-2.9,1.7-5.6,4.2-7.3c2.3-1.3,4.2-0.3,4.2,2.4C265.5,84.9,263.9,87.6,261.4,89.2L261.4,89.2z"/>
		</g>
	</g>
	<g id="freepik--Lines--inject-1--inject-5" class="st11">
		<path class="st2" d="M415.8,139c-0.1,0-0.2,0-0.2-0.1l-61.8-50.3c-0.2-0.1-0.2-0.4-0.1-0.5s0.4-0.2,0.5-0.1l61.8,50.3
			c0.2,0.1,0.2,0.4,0.1,0.5C416,138.9,415.9,139,415.8,139L415.8,139z"/>
		<path class="st2" d="M414.8,245.8L414.8,245.8c-0.2,0-0.4-0.2-0.4-0.4l3.6-78.3c0-0.2,0.2-0.4,0.4-0.4c0.2,0,0.4,0.2,0.4,0.4
			l-3.6,78.3C415.1,245.6,415,245.8,414.8,245.8z"/>
		<path class="st2" d="M409.2,250.6c-0.1,0-0.3-0.1-0.3-0.2l-40.9-77c-0.1-0.2,0-0.4,0.2-0.5s0.4,0,0.5,0.1l40.9,77
			c0.1,0.2,0,0.4-0.1,0.5l0,0C409.3,250.6,409.3,250.6,409.2,250.6z"/>
		<path class="st2" d="M378,153.7c-0.2,0-0.3-0.1-0.4-0.3c0-0.2,0.1-0.4,0.3-0.4l30.7-6.1c0.2,0,0.4,0.1,0.4,0.3l0,0
			c0,0.2-0.1,0.4-0.3,0.4l-30.6,6.1H378z"/>
		<path class="st2" d="M362.2,148.2c-0.1,0-0.3-0.1-0.3-0.2l-20.1-46.1c-0.1-0.2,0-0.4,0.2-0.5l0,0c0.2-0.1,0.4,0,0.5,0.2l0,0
			l20.1,46.1c0.1,0.2,0,0.4-0.2,0.5l0,0C362.3,148.2,362.3,148.2,362.2,148.2z"/>
		<path class="st2" d="M270,87.6c-0.2,0-0.3-0.1-0.4-0.3c0-0.2,0.1-0.4,0.3-0.4l0,0l65.7-10.8c0.2,0,0.4,0.1,0.4,0.3
			c0,0.2-0.1,0.4-0.3,0.4l0,0L270,87.6L270,87.6z"/>
		<path class="st2" d="M357.4,151.2c-0.1,0-0.1,0-0.2-0.1l-88.1-56.5c-0.2-0.1-0.2-0.3-0.1-0.5c0.1-0.2,0.3-0.2,0.5-0.1l0,0l88,56.5
			c0.2,0.1,0.2,0.3,0.1,0.5C357.6,151.2,357.5,151.2,357.4,151.2L357.4,151.2z"/>
		<path class="st2" d="M357.1,233.6L357.1,233.6c-0.2,0-0.4-0.2-0.3-0.4l6.8-60c0-0.2,0.2-0.4,0.4-0.3l0,0c0.2,0,0.3,0.2,0.3,0.4
			l0,0l-6.8,60C357.5,233.4,357.3,233.6,357.1,233.6L357.1,233.6z"/>
		<path class="st2" d="M316.8,319.3c-0.1,0-0.3-0.1-0.3-0.2c-0.1-0.2,0-0.4,0.1-0.5l0,0l84-48.9c0.2-0.1,0.4,0,0.5,0.1l0,0
			c0.1,0.2,0,0.4-0.1,0.5l0,0l-84,48.9C316.9,319.3,316.9,319.3,316.8,319.3z"/>
		<path class="st2" d="M402.4,260.8h-0.1l-39.4-11.5c-0.2-0.1-0.3-0.3-0.3-0.5c0.1-0.2,0.3-0.3,0.5-0.3l0,0l39.4,11.5
			c0.2,0.1,0.3,0.3,0.3,0.5C402.7,260.7,402.6,260.8,402.4,260.8z"/>
		<path class="st2" d="M315.9,305.1c-0.1,0-0.2,0-0.2-0.1c-0.2-0.1-0.2-0.4-0.1-0.5l29.8-40c0.1-0.2,0.4-0.2,0.5-0.1l0,0
			c0.2,0.1,0.2,0.4,0.1,0.5l-29.8,40C316.1,305,316,305.1,315.9,305.1z"/>
		<path class="st2" d="M200.1,301.2c-0.1,0-0.2-0.1-0.3-0.1L166.9,259c-0.1-0.2-0.1-0.4,0.1-0.5s0.4-0.1,0.5,0.1l32.9,42.1
			c0.1,0.2,0.1,0.4-0.1,0.5C200.3,301.2,200.2,301.2,200.1,301.2L200.1,301.2z"/>
		<path class="st2" d="M111.1,260.2c-0.1,0-0.3-0.1-0.3-0.2c-0.1-0.2,0-0.4,0.2-0.5l0,0l35.6-14.2c0.2-0.1,0.4,0.1,0.5,0.3
			c0,0.2,0,0.3-0.2,0.4l-35.6,14.2H111.1z"/>
		<path class="st2" d="M156.1,226.1c-0.2,0-0.3-0.1-0.4-0.3l-10.9-44.7c-0.1-0.2,0.1-0.4,0.3-0.4l0,0c0.2,0,0.4,0.1,0.4,0.3
			l10.9,44.7C156.5,225.8,156.4,226,156.1,226.1C156.2,226.1,156.2,226.1,156.1,226.1L156.1,226.1z"/>
		<path class="st2" d="M100.8,242.6c-0.1,0-0.1,0-0.2,0c-0.2-0.1-0.3-0.3-0.2-0.5l0,0l34-67.8c0.1-0.2,0.3-0.3,0.5-0.2
			s0.3,0.3,0.2,0.5l-34,67.7C101,242.5,100.9,242.6,100.8,242.6z"/>
		<path class="st2" d="M96,240.2c-0.2,0-0.4-0.1-0.4-0.3l-7.8-81c0-0.2,0.1-0.4,0.3-0.4l0,0c0.2,0,0.4,0.1,0.4,0.3l0,0l7.8,81
			C96.4,240,96.2,240.2,96,240.2L96,240.2L96,240.2z"/>
		<path class="st2" d="M191.5,318.4c-0.1,0-0.1,0-0.2,0l-81.8-47.2c-0.2-0.1-0.2-0.3-0.1-0.5c0.1-0.2,0.3-0.2,0.5-0.1l81.8,47.2
			c0.2,0.1,0.2,0.3,0.1,0.5C191.8,318.3,191.6,318.4,191.5,318.4z"/>
		<path class="st2" d="M144.3,157.5h-0.1c-0.2-0.1-0.3-0.3-0.2-0.5l21.8-49.8c0.1-0.2,0.3-0.3,0.5-0.2l0,0c0.2,0.1,0.3,0.3,0.2,0.5
			l0,0l-21.8,49.8C144.6,157.4,144.5,157.5,144.3,157.5z"/>
		<path class="st2" d="M248.1,87.1L248.1,87.1l-41.4-10.2c-0.2,0-0.3-0.2-0.3-0.5c0.1-0.2,0.3-0.3,0.5-0.3l41.3,10.3
			c0.2,0,0.3,0.2,0.3,0.5C248.5,87,248.3,87.1,248.1,87.1z"/>
		<path class="st2" d="M96.6,134.9c-0.1,0-0.2-0.1-0.3-0.2c-0.1-0.2-0.1-0.4,0.1-0.5L152,94c0.2-0.1,0.4-0.1,0.5,0.1
			c0.1,0.2,0.1,0.4-0.1,0.5l0,0l-55.5,40.2C96.8,134.9,96.7,135,96.6,134.9z"/>
		<path class="st2" d="M129.8,158.4c0,0-0.1,0-0.2,0l-25.9-12.2c-0.2-0.1-0.2-0.3-0.1-0.5s0.3-0.2,0.5-0.2l25.9,12.1
			c0.2,0.1,0.3,0.3,0.2,0.5l0,0C130.1,158.3,130,158.4,129.8,158.4z"/>
		<path class="st2" d="M150.7,163.3c-0.1,0-0.2-0.1-0.3-0.2c-0.1-0.2-0.1-0.4,0.1-0.5l0,0l94-67.1c0.2-0.1,0.4-0.1,0.5,0.1
			s0.1,0.4-0.1,0.5l-94,67.1C150.8,163.2,150.8,163.3,150.7,163.3z"/>
		<path class="st2" d="M291,318.2L291,318.2h-77.2c-0.2,0-0.4-0.2-0.4-0.4c0-0.2,0.2-0.4,0.4-0.4l0,0l0,0l77.2,0.1
			c0.2,0,0.4,0.1,0.4,0.3c0,0.2-0.1,0.4-0.3,0.4C291.1,318.2,291.1,318.2,291,318.2z"/>
	</g>
</g>
<g id="freepik--Plants--inject-1--inject-5">
	<g id="freepik--plants--inject-1--inject-5">
		<path class="st2" d="M66.2,410c-0.5-3.4-1.6-6.6-3.3-9.6c-2.7-4.2-6.4-6.8-9.8-7s-6.2,2.9-2.5,5s10.2,4.4,13.2,12.5L66.2,410z"/>
		<path class="st6" d="M66.2,410c-0.5-3.4-1.6-6.6-3.3-9.6c-2.7-4.2-6.4-6.8-9.8-7s-6.2,2.9-2.5,5s10.2,4.4,13.2,12.5L66.2,410z"/>
		<path class="st7" d="M65.2,408.6L65.2,408.6c0.1,0,0.1-0.1,0.1-0.2c-3.6-8.9-10.5-12.6-13.7-13.4c-0.1,0-0.2,0-0.2,0.1l0,0
			c0,0.1,0,0.2,0.1,0.2l0,0c3.1,0.7,9.8,4.4,13.4,13.1C65,408.6,65.1,408.7,65.2,408.6z"/>
		<path class="st2" d="M46.9,408.7c0.4,0.7,1,1.1,1.8,1.4c0.8,0.2,1.4,0.6,1.9,1.3c0.8,1.3-0.5,3.2,0.3,4.5c0.4,0.5,1,0.9,1.6,1
			c0.5,0.1,1.1,0.1,1.6,0.1c0.3,0,0.5,0,0.8-0.1c0.7-0.2,1.5-0.1,2.2,0.2c1.1,0.6,1.4,1.9,2,3c0.8,1.2,2.1,2.1,3.6,2.2
			c0.6,0.1,1.3,0.1,1.8-0.1l0.1-0.1l0,0l0.2-0.2l0,0c0.1-0.7,0-1.4-0.1-2.1v-0.1c0-0.8,0.1-1.7,0.1-2.5c0-1.5,0-3.1,0-4.6
			c0.1-1,0-2-0.3-3c-0.5-1-1.6-1-2.1-2.1c-0.2-0.4-0.3-0.8-0.4-1.3c-0.5-1.2-1.7-2-3-2.1c-2-0.1-3.8,1.5-5.9,1.4
			c-0.5,0-1-0.2-1.5-0.3c-1.7-0.4-3.4,0.2-4.5,1.5C46.8,407.4,46.7,408.1,46.9,408.7z"/>
		<path class="st7" d="M65.1,418.7L65.1,418.7c0.1,0,0.2-0.1,0.1-0.2l0,0c-2.8-10.5-13.8-12-16.4-11.8c-0.1,0-0.2,0.1-0.2,0.2
			s0.1,0.2,0.2,0.2l0,0c2.5-0.2,13.3,1.3,16.1,11.5C64.9,418.7,64.9,418.7,65.1,418.7L65.1,418.7z"/>
		<path class="st7" d="M52.8,413.4C52.8,413.4,52.9,413.4,52.8,413.4c2.2-1.8,4.9-2.6,7.6-2.2c0.1,0,0.2,0,0.2-0.1l0,0
			c0-0.1,0-0.2-0.1-0.2l0,0c-2.8-0.5-5.7,0.3-7.8,2.2c-0.1,0.1-0.1,0.2,0,0.2l0,0C52.6,413.4,52.7,413.4,52.8,413.4z"/>
	</g>
	<g id="freepik--plants--inject-1--inject-5_1_">
		<path class="st2" d="M270.2,439c0.7-4.1,2.2-8,4.4-11.5c3.4-5,8-8,12.2-8.2s7.5,3.8,2.9,6.3s-12.6,4.9-16.6,14.7L270.2,439z"/>
		<path class="st12" d="M270.2,439c0.7-4.1,2.2-8,4.4-11.5c3.4-5,8-8,12.2-8.2s7.5,3.8,2.9,6.3s-12.6,4.9-16.6,14.7L270.2,439z"/>
		<path class="st7" d="M271.5,437.3L271.5,437.3c-0.1,0-0.2-0.2-0.1-0.3c4.8-10.7,13.3-15,17.2-15.8c0.1,0,0.2,0,0.3,0.2l0,0
			c0,0.1,0,0.2-0.2,0.3c-3.8,0.7-12.2,4.9-16.9,15.5C271.8,437.3,271.6,437.4,271.5,437.3z"/>
		<path class="st2" d="M271.4,446.4c0.3-1,0.4-2.1,0.3-3.2c-0.3-1.1-0.4-2.3-0.5-3.5c0.2-1,0.8-1.8,1.6-2.4c0.8-0.4,1.6-1,2.3-1.6
			c0.5-0.8,0.8-1.8,1-2.7c0.4-1,1.2-1.8,2.1-2.2c1-0.4,2.1-0.5,3.1-0.1c0.9,0.4,1.7,1,2.5,1.6s1.8,1,2.8,1c1.1,0,2.2,0,3.3,0.2
			c1.9,0.3,4.1,1.3,4.5,3.4c0.1,0.5,0,1-0.2,1.5v0.1c-0.8,1.3-2.5,1.3-3.7,1.8c-0.3,0.1-0.9,0.3-1,0.7s0.1,0.9,0.2,1.3
			c0.6,2.1,0.7,4.8-2.2,5.2c-1.1,0-2.2-0.1-3.2-0.5c-1.1-0.3-2.2-0.1-3.1,0.6c-0.4,0.5-0.7,1.1-0.9,1.7c-0.7,1.2-1.8,2.2-3.1,2.7
			c-1.3,0.4-2.7,0.6-4.1,0.5C269.9,452.1,270.8,448.4,271.4,446.4z"/>
		<path class="st7" d="M271.3,449.7L271.3,449.7c-0.1,0-0.2-0.2-0.1-0.3c3.8-12.7,17.4-14.1,20.5-13.8c0.1,0,0.2,0.1,0.2,0.2
			s-0.1,0.2-0.2,0.2l0,0c-3.1-0.3-16.3,1.1-20,13.5C271.6,449.6,271.5,449.7,271.3,449.7C271.4,449.7,271.3,449.7,271.3,449.7z"/>
		<path class="st7" d="M286.5,443.7c0,0-0.1,0-0.1-0.1c-2.4-2.3-5.8-3.3-9.1-2.9c-0.1,0-0.2-0.1-0.2-0.2s0.1-0.2,0.2-0.2
			c3.4-0.5,6.9,0.6,9.4,3c0.1,0.1,0.1,0.2,0,0.3C286.7,443.7,286.6,443.7,286.5,443.7z"/>
	</g>
	<g id="freepik--plants--inject-1--inject-5_2_">
		<path class="st2" d="M236.1,440.1c-0.1-4.8-1.5-9.4-4-13.5c-3.4-5.5-7.8-9.2-11.4-8c-3.4,1.1-2.6,5.7,2.6,10.6
			c3.6,3.5,7.3,7.9,9.1,13l3,6.5L236.1,440.1z"/>
		<path class="st2" d="M236.1,440.1c-0.1-4.8-1.5-9.4-4-13.5c-3.4-5.5-7.8-9.2-11.4-8c-3.4,1.1-2.6,5.7,2.6,10.6
			c3.6,3.5,7.3,7.9,9.1,13l3,6.5L236.1,440.1z"/>
		<g class="st13">
			<path d="M236.1,440.1c-0.1-4.8-1.5-9.4-4-13.5c-3.4-5.5-7.8-9.2-11.4-8c-3.4,1.1-2.6,5.7,2.6,10.6c3.6,3.5,7.3,7.9,9.1,13l3,6.5
				L236.1,440.1z"/>
		</g>
		<path class="st7" d="M235.6,442.4c-0.1,0-0.2-0.1-0.2-0.2c-2.3-8.9-8-18.2-13.2-21.6c-0.1-0.1-0.1-0.2-0.1-0.3l0,0
			c0.1-0.1,0.2-0.1,0.3-0.1l0,0c5.3,3.5,11.1,12.9,13.4,21.9C235.9,442.2,235.8,442.4,235.6,442.4
			C235.7,442.4,235.7,442.4,235.6,442.4L235.6,442.4z"/>
		<path class="st2" d="M236.3,450.2c-1.7,1.5-3.8,2.6-6,3.1c-3.9,0.9-5.7-0.8-5.7-0.8s1.3-3.8,3.4-5c-2.4,0.7-4.6,1.8-6.6,3.3
			c0,0-2.4,0.2-3.6-3.4c0,0,1.3-2.3,5.9-3.8c-2.4-0.3-4.8,0-7,0.9c-0.3,0.1-2-4.5-2.6-6.6s0.3-2.2,2-2.8s7.4-1.3,8.6-0.4
			s1.9,4,1.9,4c0.5-1.4,0.6-2.8,0.4-4.2c1.5-0.3,3.1-0.2,4.6,0.2c0.4,0.1,1.2,3.3,0.4,5.9c1.1-1.5,1.7-3.2,1.9-5
			c2,1,3.4,2.9,3.9,5.1C238.2,442.7,238.6,447.2,236.3,450.2z"/>
		<path class="st7" d="M236.3,450.4c-0.1,0-0.2,0-0.2-0.1c-3.6-6.3-16-13.1-20.3-13.6c-0.1,0-0.2-0.1-0.2-0.2s0.1-0.2,0.2-0.2h0.1
			c4.3,0.5,16.9,7.4,20.6,13.8c0.1,0.1,0,0.2-0.1,0.3C236.4,450.4,236.3,450.4,236.3,450.4z"/>
	</g>
	<g id="freepik--plants--inject-1--inject-5_3_">
		<path class="st2" d="M450.4,407.6c0.4-3.4,1.6-6.6,3.3-9.6c2.7-4.2,6.4-6.8,9.8-7s6.2,2.9,2.5,5s-10.2,4.4-13.2,12.5L450.4,407.6z
			"/>
		<path class="st6" d="M450.4,407.6c0.4-3.4,1.6-6.6,3.3-9.6c2.7-4.2,6.4-6.8,9.8-7s6.2,2.9,2.5,5s-10.2,4.4-13.2,12.5L450.4,407.6z
			"/>
		<path class="st7" d="M451.4,406.2L451.4,406.2c-0.1,0-0.1-0.1-0.1-0.2l0,0c3.6-8.9,10.5-12.6,13.6-13.4c0.1,0,0.2,0,0.2,0.1l0,0
			c0,0.1,0,0.2-0.1,0.2l0,0c-3.1,0.7-9.8,4.4-13.4,13.1C451.6,406.2,451.5,406.2,451.4,406.2L451.4,406.2z"/>
		<path class="st2" d="M469.7,406.3c-0.4,0.7-1,1.1-1.8,1.4c-0.7,0.2-1.4,0.6-1.9,1.3c-0.8,1.3,0.5,3.2-0.3,4.5
			c-0.4,0.5-1,0.9-1.6,1c-0.5,0.1-1.1,0.1-1.6,0.1c-0.3,0-0.5,0-0.8-0.1c-0.7-0.2-1.5-0.1-2.2,0.2c-1.1,0.6-1.4,1.9-2,3
			c-0.8,1.2-2.1,2.1-3.6,2.3c-0.6,0.1-1.3,0.1-1.9-0.1l-0.1-0.1l0,0c-0.1-0.1-0.1-0.2-0.2-0.2l0,0c-0.1-0.7,0-1.4,0.1-2.1v-0.1
			c0-0.8-0.1-1.7-0.1-2.5c0-1.5,0-3.1,0-4.6c-0.1-1,0-2,0.3-3c0.5-1,1.6-1,2.1-2.1c0.2-0.4,0.3-0.8,0.4-1.2c0.5-1.2,1.7-2,3-2.1
			c2-0.1,3.8,1.5,5.9,1.4c0.5-0.1,1-0.2,1.5-0.3c1.7-0.4,3.4,0.2,4.5,1.5C469.9,405,470,405.7,469.7,406.3z"/>
		<path class="st7" d="M451.6,416.3L451.6,416.3c-0.1,0-0.1-0.1-0.1-0.2l0,0c2.8-10.5,13.8-12,16.4-11.8c0.1,0,0.2,0.1,0.2,0.2l0,0
			c0,0.1-0.1,0.2-0.2,0.2l0,0c-2.5-0.2-13.3,1.3-16.1,11.5C451.8,416.2,451.7,416.3,451.6,416.3z"/>
		<path class="st7" d="M463.9,411C463.8,411,463.8,411,463.9,411c-2.2-1.8-4.9-2.6-7.6-2.1c-0.1,0-0.2-0.1-0.2-0.1l0,0
			c0-0.1,0-0.2,0.1-0.2l0,0c2.8-0.5,5.7,0.3,7.8,2.2C464.1,410.9,464.1,411,463.9,411C464,411,463.9,411,463.9,411z"/>
	</g>
</g>
<g id="freepik--Devices--inject-1--inject-5">
	<g id="freepik--Laptop--inject-1--inject-5">
		<path class="st14" d="M338.1,385.3c0.1,0.9,0.6,1.7,1.3,2.2l37.7,21.8c0.8,0.4,1.8,0.4,2.7,0l51.5-29.8c1.2-0.7,1.7-2.2,1-3.4
			c-0.2-0.4-0.6-0.8-1-1l-37.7-21.8c-0.8-0.4-1.8-0.4-2.7,0l-51.5,29.8C338.6,383.5,338.1,384.3,338.1,385.3z"/>
		<path class="st15" d="M378.4,406.6v2.9c-0.5,0-0.9-0.1-1.3-0.3l-37.7-21.8c-1.2-0.7-1.7-2.2-1-3.4c0.2-0.4,0.5-0.7,0.9-1
			c-0.6,0.4-0.6,1.1,0.1,1.5l37.7,21.8C377.5,406.5,378,406.6,378.4,406.6z"/>
		<path class="st1" d="M336.8,383.1c-0.8-0.5-1.2-1.4-1.3-2.3v-45c0.1-0.9,0.6-1.8,1.3-2.3l51.5-29.8c1.2-0.7,2.7-0.4,3.5,0.8
			c0.3,0.4,0.4,0.9,0.4,1.4v45c-0.1,0.9-0.6,1.8-1.3,2.3L339.4,383C338.6,383.4,337.6,383.5,336.8,383.1z"/>
		<path class="st15" d="M339.3,383.1c-1.2,0.7-2.7,0.2-3.4-1c-0.2-0.4-0.3-0.9-0.3-1.3v-45c0-0.5,0.2-0.9,0.4-1.3l2.5,1.5l0,0
			c-0.2,0.4-0.4,0.9-0.4,1.3v45C338.1,383,338.6,383.4,339.3,383.1z"/>
		<path class="st14" d="M338.1,337.3v45c0,0.9,0.6,1.2,1.3,0.8l51.5-29.8c0.8-0.5,1.3-1.4,1.3-2.3v-45c0-0.9-0.6-1.2-1.3-0.8
			L339.4,335C338.6,335.5,338.1,336.3,338.1,337.3z"/>
		<path class="st1" d="M339.4,384.6l37.7,21.7c0.8,0.4,1.8,0.4,2.7,0l51.5-29.8c0.4-0.2,0.7-0.6,0.5-1.1c-0.1-0.2-0.3-0.4-0.5-0.5
			l-37.7-21.8c-0.8-0.4-1.8-0.4-2.7,0l-51.5,29.8c-0.4,0.2-0.7,0.6-0.5,1.1C339,384.3,339.2,384.5,339.4,384.6z"/>
		<path class="st2" d="M340.1,337.4l49.7-28.7c0.5-0.3,0.8,0,0.8,0.5v38.9c0,0.6-0.3,1.1-0.8,1.4l-49.7,28.7c-0.5,0.3-0.8,0-0.8-0.5
			v-38.9C339.4,338.3,339.7,337.8,340.1,337.4z"/>
		<path class="st7" d="M372.3,330l-0.1-0.1l0,0c-1.9-1.4-4.4-1.4-7.1,0.2c-2.9,1.9-5.3,4.5-6.9,7.6L358,338l-0.1,0.1
			c-1.9,3.5-2.9,7.3-3,11.2c0,3.6,1,6.4,3,7.8s4.4,1.4,7.1-0.2c3.1-2,5.5-4.8,7.1-8.1c1.9-3.4,2.9-7.3,3-11.2
			C375.1,334.2,374.1,331.4,372.3,330z M366.6,355.6c-0.4,0.3-0.7,0.5-1.1,0.8l-0.5,0.3l-0.5,0.3c-0.4,0.2-0.7,0.3-1.1,0.5
			c-4.7,1.7-8.3-1.6-8.3-8.1v-0.3c0.1-3.9,1.2-7.6,3-11l0.2-0.3c1.3-2.4,3-4.6,5.2-6.4c0.4-0.3,0.7-0.5,1.1-0.8l0.5-0.3l0.5-0.3
			c0.4-0.2,0.7-0.3,1.1-0.5c1.8-0.8,3.8-0.6,5.4,0.6c0.1,0,0.1,0.1,0.2,0.1c1.7,1.4,2.7,3.9,2.8,7.4v0.3
			C374.8,344.4,371.2,351.9,366.6,355.6z"/>
		<path class="st7" d="M365,357.6c-2.8,1.6-5.5,1.7-7.5,0.2s-3.1-4.4-3.1-8.2c0.1-4.1,1.2-8.1,3.1-11.7l0.1-0.2l0.2-0.3
			c1.6-3.3,4.1-6,7.2-8c2.8-1.6,5.5-1.7,7.4-0.2l0,0l0.1,0.1l0,0c1.9,1.5,3,4.4,3,8.1c-0.1,4.1-1.2,8.1-3.1,11.7
			C370.8,352.5,368.2,355.5,365,357.6z M365,330.9l-0.4,0.3c-0.4,0.2-0.7,0.5-1.1,0.8c-2,1.7-3.7,3.8-4.9,6.1l-0.1,0.3
			c-1.7,3.2-2.7,6.8-2.8,10.5v0.3c0,6.1,3.4,9.3,7.9,7.7c0.4-0.1,0.7-0.3,1.1-0.5c0.3-0.1,0.6-0.3,0.9-0.5s0.7-0.5,1.1-0.8l0,0
			c4.5-3.6,7.9-10.7,7.9-16.8V338c0-3.2-1-5.7-2.6-7l-0.1-0.1c-1.5-1.1-3.4-1.3-5.1-0.5c-0.4,0.1-0.7,0.3-1.1,0.5H365z"/>
		<path class="st7" d="M372.4,329.7l-0.1-0.1l0,0l-0.2-0.1l-0.2,0.3l-0.2,0.3c-0.5,1-1.2,2-1.8,2.9c-0.1,0.1-0.1,0.2-0.2,0.2
			c-0.9,1.1-1.8,2.1-2.9,3l-0.2,0.2c-0.5,0.4-0.9,0.7-1.4,1c-0.6,0.3-1.2,0.6-1.9,0.8l-0.2,0.1c-0.9,0.3-1.9,0.3-2.9,0.1H360
			c-0.6-0.2-1.2-0.4-1.7-0.8l-0.1-0.1l-0.2-0.1l-0.2,0.3c0,0.1-0.1,0.2-0.2,0.3l-0.2,0.3l0.2,0.1l0.1,0.1l0,0
			c0.6,0.4,1.2,0.7,1.9,0.9h0.2c1,0.2,2.1,0.1,3-0.2l0.2-0.1c0.7-0.2,1.4-0.5,2-0.9c0.5-0.3,1-0.6,1.5-1l0.2-0.2
			c1.2-1,2.2-2,3.1-3.2l0.2-0.3c0.7-1,1.4-2,2-3.1c0.1-0.1,0.1-0.2,0.2-0.3L372.4,329.7L372.4,329.7z"/>
		<path class="st7" d="M372.4,348.3c-0.1,0-0.1-0.1-0.2-0.1c-0.6-0.4-1.3-0.7-2-0.8c-0.1,0-0.1,0-0.2,0c-1.1-0.1-2.1,0-3.1,0.4
			l-0.2,0.1c-0.5,0.2-1,0.4-1.5,0.7c-0.7,0.4-1.3,0.9-2,1.4l-0.2,0.2c-1.1,1-2.2,2.1-3,3.3l-0.2,0.3c-0.7,1-1.3,2-1.9,3l0,0
			c0,0.1-0.1,0.2-0.1,0.3l-0.2,0.3l0.2,0.1c0.1,0,0.1,0.1,0.2,0.1l0.2,0.1l0.2-0.3l0.1-0.3c0.5-1,1.1-1.9,1.7-2.8l0.2-0.3
			c0.8-1.1,1.8-2.2,2.9-3.1l0.2-0.2c0.6-0.5,1.2-0.9,1.9-1.3c0.5-0.3,0.9-0.5,1.4-0.7l0.2-0.1c0.9-0.4,1.9-0.5,2.9-0.4h0.2
			c0.7,0.1,1.3,0.4,1.8,0.8l0.2,0.1l0.2,0.1l0.2-0.3l0,0c0-0.1,0.1-0.2,0.1-0.3l0.2-0.3L372.4,348.3z"/>
		<path class="st7" d="M368.8,331.6c-1-2.1-2.4-2.8-3.8-1.9s-2.8,3.1-3.8,6.3c-1,3.4-1.5,7-1.5,10.5c-0.1,3,0.4,6,1.5,8.8
			c1,2.1,2.4,2.8,3.8,1.9s2.8-3.1,3.8-6.3c1-3.4,1.5-7,1.5-10.5C370.5,337.4,369.9,334.4,368.8,331.6z M365,356.4
			c-1.3,0.7-2.4,0.1-3.4-1.8c-1.1-2.6-1.5-5.5-1.4-8.3c0-3.4,0.5-6.8,1.4-10c0.9-2.9,2.1-4.9,3.4-5.6s2.4-0.1,3.3,1.8
			c1.1,2.6,1.5,5.5,1.4,8.3c0,3.4-0.5,6.8-1.4,10C367.4,353.6,366.2,355.6,365,356.4z"/>
		<path class="st7" d="M375,337.3l-20,11.5c-0.2,0.2-0.3,0.4-0.3,0.7c0,0.3,0.1,0.4,0.3,0.3l20-11.5c0.2-0.2,0.3-0.4,0.3-0.7
			C375.3,337.3,375.2,337.2,375,337.3z"/>
		<path class="st7" d="M365.4,356.6V330c0-0.3-0.2-0.4-0.4-0.2c-0.2,0.1-0.4,0.4-0.4,0.7v26.6c0,0.3,0.2,0.4,0.4,0.3
			C365.2,357.1,365.3,356.9,365.4,356.6z"/>
		<path class="st14" d="M343.8,383.4l47.8-27.6c0.4-0.2,0.9-0.2,1.4,0l2.4,1.4c0.2,0.1,0.3,0.3,0.3,0.5c0,0.1-0.1,0.2-0.3,0.3
			l-47.8,27.6c-0.4,0.2-0.9,0.2-1.3,0l-2.4-1.4c-0.2-0.1-0.3-0.3-0.3-0.5C343.6,383.5,343.7,383.4,343.8,383.4z"/>
		<path class="st15" d="M350.1,387l47.9-27.6c0.4-0.2,0.9-0.2,1.3,0l15,8.7c0.4,0.2,0.4,0.6,0,0.8l-47.7,27.6
			c-0.4,0.2-0.9,0.2-1.3,0l-15.1-8.6c-0.2-0.1-0.4-0.3-0.3-0.5C349.9,387.2,350,387.1,350.1,387z"/>
		<path class="st1" d="M393,371.9l1.5-0.9c0.1,0,0.1-0.1,0-0.1l-1.7-1c-0.1,0-0.2,0-0.2,0l-1.5,0.9c-0.1,0-0.1,0.1,0,0.1l1.7,1
			C392.8,371.9,392.9,371.9,393,371.9z M390,368.4l-1.5,0.9c-0.1,0-0.1,0.1,0,0.1l1.7,1c0.1,0,0.2,0,0.2,0l1.5-0.9
			c0.1,0,0.1-0.1,0-0.1l-1.7-1C390.2,368.4,390.1,368.4,390,368.4L390,368.4z M385.2,371.2l-2.5,1.5c-0.1,0-0.1,0.1,0,0.1l1.7,1
			c0.1,0,0.2,0,0.2,0l2.5-1.5c0.1,0,0-0.1,0-0.1l-1.7-1C385.3,371.2,385.3,371.2,385.2,371.2L385.2,371.2z M387.8,369.7l-1.5,0.9
			c-0.1,0-0.1,0.1,0,0.1l1.7,1c0.1,0,0.2,0,0.2,0l1.5-0.9c0.1,0,0.1-0.1,0-0.1l-1.7-1C388,369.7,387.9,369.7,387.8,369.7
			L387.8,369.7z M381.9,373.1l-1.5,0.9c-0.1,0-0.1,0.1,0,0.1l1.7,1c0.1,0,0.2,0,0.2,0l1.5-0.9c0.1,0,0.1-0.1,0-0.1l-1.7-1
			C382.1,373,382,373,381.9,373.1L381.9,373.1z M379.7,374.3l-1.5,0.9c-0.1,0-0.1,0.1,0,0.1l1.7,1c0.1,0,0.2,0,0.2,0l1.5-0.9
			c0.1,0,0.1-0.1,0-0.1l-1.7-1C379.9,374.3,379.8,374.3,379.7,374.3L379.7,374.3z M386.6,378.4l1.5-0.9c0.1,0,0.1-0.1,0-0.1l-1.7-1
			c-0.1,0-0.2,0-0.2,0l-1.5,0.9c-0.1,0-0.1,0.1,0,0.1l1.7,1C386.4,378.4,386.5,378.4,386.6,378.4z M384.4,379.7l1.5-0.9
			c0.1,0,0.1-0.1,0-0.1l-1.7-1c-0.1,0-0.2,0-0.2,0l-1.5,0.9c-0.1,0-0.1,0.1,0,0.1l1.7,1C384.2,379.7,384.3,379.7,384.4,379.7
			L384.4,379.7z M382.2,380.9l1.5-0.9c0.1,0,0.1-0.1,0-0.1l-1.7-1c-0.1,0-0.2,0-0.2,0l-1.5,0.9c-0.1,0-0.1,0.1,0,0.1l1.7,1
			C382.1,381,382.1,381,382.2,380.9L382.2,380.9z M380,382.2l1.5-0.9c0.1,0,0.1-0.1,0-0.1l-1.7-1c-0.1,0-0.2,0-0.2,0l-1.5,0.9
			c-0.1,0-0.1,0.1,0,0.1l1.7,1C379.9,382.2,380,382.2,380,382.2L380,382.2z M390.8,373.1l1.5-0.9c0.1,0,0.1-0.1,0-0.1l-1.7-1
			c-0.1,0-0.2,0-0.2,0l-1.5,0.9c-0.1,0-0.1,0.1,0,0.1l1.7,1C390.6,373.2,390.7,373.2,390.8,373.1L390.8,373.1z M388.8,377.1l3.3-1.9
			c0.1,0,0.1-0.1,0-0.1l-4.2-2.4c-0.1,0-0.2,0-0.2,0l-1.7,1c-0.1,0-0.1,0.1,0,0.1l2.2,1.3c0.1,0,0.1,0.1,0,0.1l-1.4,0.8
			c-0.1,0-0.1,0.1,0,0.1l1.7,1C388.6,377.2,388.7,377.2,388.8,377.1L388.8,377.1z M377.6,375.6l-1.5,0.9c-0.1,0-0.1,0.1,0,0.1l1.7,1
			c0.1,0,0.2,0,0.2,0l1.5-0.9c0.1,0,0.1-0.1,0-0.1l-1.7-1C377.8,375.6,377.7,375.6,377.6,375.6z M375.4,376.9l-1.5,0.9
			c-0.1,0-0.1,0.1,0,0.1l1.7,1c0.1,0,0.2,0,0.2,0l1.5-0.9c0.1,0,0.1-0.1,0-0.1l-1.7-1C375.6,376.8,375.5,376.8,375.4,376.9
			L375.4,376.9z M364.5,391c0.1,0,0.2,0,0.2,0l1.5-0.9c0.1,0,0.1-0.1,0-0.1l-1.7-1c-0.1,0-0.2,0-0.2,0l-1.5,0.9
			c-0.1,0-0.1,0.1,0,0.1L364.5,391z M357.9,387l-1.5,0.9c-0.1,0-0.1,0.1,0,0.1l1.7,1c0.1,0,0.2,0,0.2,0l1.5-0.9c0.1,0,0.1-0.1,0-0.1
			l-1.7-1C358.1,386.9,358,386.9,357.9,387L357.9,387z M361.4,390c0.1,0,0.2,0,0.2,0l1.5-0.9c0.1,0,0.1-0.1,0-0.1l-1.7-1
			c-0.1,0-0.2,0-0.2,0l-1.5,0.9c-0.1,0-0.1,0.1,0,0.1L361.4,390z M368.3,391.8l1.5-0.9c0.1,0,0.1-0.1,0-0.1l-1.7-1
			c-0.1,0-0.2,0-0.2,0l-1.5,0.9c-0.1,0-0.1,0.1,0,0.1l1.7,1C368.2,391.9,368.3,391.8,368.3,391.8L368.3,391.8z M365.9,393.1
			c0.1,0,0.2,0,0.2,0l1.5-0.9c0.1,0,0.1-0.1,0-0.1l-1.7-1c-0.1,0-0.2,0-0.2,0l-1.5,0.9c-0.1,0-0.1,0.1,0,0.1L365.9,393.1z
			 M360.1,385.7l-1.5,0.9c-0.1,0-0.1,0.1,0,0.1l1.7,1c0.1,0,0.2,0,0.2,0l1.5-0.9c0.1,0,0.1-0.1,0-0.1l-1.7-1
			C360.2,385.7,360.2,385.7,360.1,385.7L360.1,385.7z M371,379.4l-1.5,0.9c-0.1,0-0.1,0.1,0,0.1l1.7,1c0.1,0,0.2,0,0.2,0l1.5-0.9
			c0.1,0,0.1-0.1,0-0.1l-1.7-1C371.2,379.4,371.1,379.4,371,379.4z M362.3,384.4l-1.5,0.9c-0.1,0-0.1,0.1,0,0.1l1.7,1
			c0.1,0,0.2,0,0.2,0l1.5-0.9c0.1,0,0.1-0.1,0-0.1l-1.7-1C362.4,384.4,362.3,384.4,362.3,384.4z M373.2,378.1l-1.5,0.9
			c-0.1,0-0.1,0.1,0,0.1l1.7,1c0.1,0,0.2,0,0.2,0l1.5-0.9c0.1,0,0.1-0.1,0-0.1l-1.7-1C373.4,378.1,373.3,378.1,373.2,378.1
			L373.2,378.1z M368.8,380.6l-1.5,0.9c-0.1,0-0.1,0.1,0,0.1l1.7,1c0.1,0,0.2,0,0.2,0l1.5-0.9c0.1,0,0.1-0.1,0-0.1l-1.7-1
			C369,380.6,368.9,380.6,368.8,380.6L368.8,380.6z M366.6,381.9l-1.5,0.9c-0.1,0-0.1,0.1,0,0.1l1.7,1c0.1,0,0.2,0,0.2,0l1.5-0.9
			c0.1,0,0.1-0.1,0-0.1l-1.7-1C366.8,381.9,366.7,381.9,366.6,381.9z M364.4,383.2l-1.5,0.9c-0.1,0-0.1,0.1,0,0.1l1.7,1
			c0.1,0,0.2,0,0.2,0l1.5-0.9c0.1,0,0.1-0.1,0-0.1l-1.7-1C364.6,383.1,364.5,383.2,364.4,383.2L364.4,383.2z M375.6,384.7l1.5-0.9
			c0.1,0,0.1-0.1,0-0.1l-1.7-1c-0.1,0-0.2,0-0.2,0l-1.5,0.9c-0.1,0-0.1,0.1,0,0.1l1.7,1C375.4,384.8,375.6,384.8,375.6,384.7
			L375.6,384.7z M394.8,365.6l-1.5,0.9c-0.1,0-0.1,0.1,0,0.1l1.7,1c0.1,0,0.2,0,0.2,0l1.5-0.9c0.1,0,0.1-0.1,0-0.1l-1.7-1
			C395,365.6,394.9,365.6,394.8,365.6L394.8,365.6z M392.2,367.2l-1.5,0.9c-0.1,0-0.1,0.1,0,0.1l1.7,1c0.1,0,0.2,0,0.2,0l1.5-0.9
			c0.1,0,0.1-0.1,0-0.1l-1.7-1C392.3,367.1,392.3,367.1,392.2,367.2L392.2,367.2z M397,364.4l-1.5,0.9c-0.1,0-0.1,0.1,0,0.1l1.7,1
			c0.1,0,0.2,0,0.2,0l1.5-0.9c0.1,0,0.1-0.1,0-0.1l-1.7-1C397.2,364.3,397.1,364.4,397,364.4L397,364.4z M385.7,376l1.5-0.9
			c0.1,0,0.1-0.1,0-0.1l-1.7-1c-0.1,0-0.2,0-0.2,0l-1.5,0.9c-0.1,0-0.1,0.1,0,0.1l1.7,1C385.5,376.1,385.6,376.1,385.7,376
			L385.7,376z M399.5,363.1c-0.1,0-0.2,0-0.2,0l-1.5,0.9c-0.1,0-0.1,0.1,0,0.1l1.7,1c0.1,0,0.2,0,0.2,0l1.5-0.9c0.1,0,0.1-0.1,0-0.1
			L399.5,363.1z M377.8,383.4l1.5-0.9c0.1,0,0.1-0.1,0-0.1l-1.7-1c-0.1,0-0.2,0-0.2,0l-1.5,0.9c-0.1,0-0.1,0.1,0,0.1l1.7,1
			C377.7,383.5,377.8,383.5,377.8,383.4L377.8,383.4z M404.6,367.9l1.5-0.9c0.1,0,0.1-0.1,0-0.1l-1.7-1c-0.1,0-0.2,0-0.2,0l-1.5,0.9
			c-0.1,0-0.1,0.1,0,0.1l1.7,1C404.5,368,404.6,368,404.6,367.9L404.6,367.9z M400,367.8l1.5-0.9c0.1,0,0.1-0.1,0-0.1l-1.7-1
			c-0.1,0-0.2,0-0.2,0l-1.5,0.9c-0.1,0-0.1,0.1,0,0.1l1.7,1C399.8,367.8,399.9,367.8,400,367.8L400,367.8z M401.9,364.5
			c-0.1,0-0.2,0-0.2,0l-1.5,0.9c-0.1,0-0.1,0.1,0,0.1l1.7,1c0.1,0,0.2,0,0.2,0l1.5-0.9c0.1,0,0.1-0.1,0-0.1L401.9,364.5z
			 M402.4,364.3l4.2,2.4c0.1,0,0.2,0,0.2,0l1.5-0.9c0.1,0,0.1-0.1,0-0.1l-4.2-2.4c-0.1,0-0.2,0-0.2,0l-1.5,0.9
			C402.4,364.2,402.4,364.2,402.4,364.3L402.4,364.3z M397.3,367l-1.5,0.9c-0.1,0-0.1,0.1,0,0.1l1.7,1c0.1,0,0.2,0,0.2,0l1.5-0.9
			c0.1,0,0.1-0.1,0-0.1l-1.7-1C397.5,367,397.4,367,397.3,367L397.3,367z M380.8,376.6l-1.5,0.9c-0.1,0-0.1,0.1,0,0.1l1.7,1
			c0.1,0,0.2,0,0.2,0l1.5-0.9c0.1,0,0.1-0.1,0-0.1l-1.7-1C381,376.5,380.9,376.5,380.8,376.6L380.8,376.6z M402.2,369.2
			c0.1,0,0.2,0,0.2,0l1.5-0.9c0.1,0,0.1-0.1,0-0.1l-1.7-1c-0.1,0-0.2,0-0.2,0l-1.5,0.9c-0.1,0-0.1,0.1,0,0.1L402.2,369.2z
			 M383,375.3l-1.5,0.9c-0.1,0-0.1,0.1,0,0.1l1.7,1c0.1,0,0.2,0,0.2,0l1.5-0.9c0.1,0,0.1-0.1,0-0.1l-1.7-1
			C383.2,375.3,383.1,375.3,383,375.3L383,375.3z M366.6,389.8c0.1,0,0.2,0,0.2,0l1.5-0.9c0.1,0,0.1-0.1,0-0.1l-1.7-1
			c-0.1,0-0.2,0-0.2,0l-1.5,0.9c-0.1,0-0.1,0.1,0,0.1L366.6,389.8z M363.3,386.7l-1.5,0.9c-0.1,0-0.1,0.1,0,0.1l1.7,1
			c0.1,0,0.2,0,0.2,0l1.5-0.9c0.1,0,0.1-0.1,0-0.1l-1.7-1C363.5,386.6,363.4,386.6,363.3,386.7L363.3,386.7z M369,388.5l1.5-0.9
			c0.1,0,0.1-0.1,0-0.1l-1.7-1c-0.1,0-0.2,0-0.2,0l-1.5,0.9c-0.1,0-0.1,0.1,0,0.1l1.7,1C368.9,388.6,369,388.6,369,388.5L369,388.5z
			 M371.2,387.2l1.5-0.9c0.1,0,0.1-0.1,0-0.1l-1.7-1c-0.1,0-0.2,0-0.2,0l-1.5,0.9c-0.1,0-0.1,0.1,0,0.1l1.7,1
			C371.1,387.3,371.2,387.3,371.2,387.2L371.2,387.2z M373.4,386l1.5-0.9c0.1,0,0.1-0.1,0-0.1l-1.7-1c-0.1,0-0.2,0-0.2,0l-1.5,0.9
			c-0.1,0-0.1,0.1,0,0.1l1.7,1C373.3,386,373.4,386,373.4,386L373.4,386z M365.6,385.4l-1.5,0.9c-0.1,0-0.1,0.1,0,0.1l1.7,1
			c0.1,0,0.2,0,0.2,0l1.5-0.9c0.1,0,0.1-0.1,0-0.1l-1.7-1C365.8,385.4,365.7,385.4,365.6,385.4z M367.8,384.1l-1.5,0.9
			c-0.1,0-0.1,0.1,0,0.1l1.7,1c0.1,0,0.2,0,0.2,0l1.5-0.9c0.1,0,0.1-0.1,0-0.1l-1.7-1C367.9,384.1,367.8,384.1,367.8,384.1
			L367.8,384.1z M376.5,379.1L375,380c-0.1,0-0.1,0.1,0,0.1l1.7,1c0.1,0,0.2,0,0.2,0l1.5-0.9c0.1,0,0.1-0.1,0-0.1l-1.7-1
			C376.7,379,376.6,379,376.5,379.1L376.5,379.1z M374.3,380.4l-1.5,0.9c-0.1,0-0.1,0.1,0,0.1l1.7,1c0.1,0,0.2,0,0.2,0l1.5-0.9
			c0.1,0,0.1-0.1,0-0.1l-1.7-1C374.5,380.4,374.4,380.4,374.3,380.4z M378.7,377.9l-1.5,0.9c-0.1,0-0.1,0.1,0,0.1l1.7,1
			c0.1,0,0.2,0,0.2,0l1.5-0.9c0.1,0,0.1-0.1,0-0.1l-1.7-1C378.9,377.8,378.8,377.8,378.7,377.9L378.7,377.9z M369.9,382.9l-1.5,0.9
			c-0.1,0-0.1,0.1,0,0.1l1.7,1c0.1,0,0.2,0,0.2,0l1.5-0.9c0.1,0,0.1-0.1,0-0.1l-1.7-1C370.1,382.9,370,382.9,369.9,382.9
			L369.9,382.9z M372.1,381.7l-1.5,0.9c-0.1,0-0.1,0.1,0,0.1l1.7,1c0.1,0,0.2,0,0.2,0l1.5-0.9c0.1,0,0.1-0.1,0-0.1l-1.7-1
			C372.3,381.6,372.2,381.6,372.1,381.7L372.1,381.7z M370.5,390.6l1.5-0.9c0.1,0,0.1-0.1,0-0.1l-1.7-1c-0.1,0-0.2,0-0.2,0l-1.5,0.8
			c-0.1,0-0.1,0.1,0,0.1l1.7,1C370.4,390.6,370.5,390.6,370.5,390.6L370.5,390.6z M357.7,389.3l-1.7-1c-0.1,0-0.2,0-0.2,0l-1.5,0.9
			c-0.1,0-0.1,0.1,0,0.1l1.7,1c0.1,0,0.2,0,0.2,0l1.5-0.9C357.7,389.3,357.7,389.3,357.7,389.3L357.7,389.3z M361,390.3l-1.7-1
			c-0.1,0-0.2,0-0.2,0l-2.3,1.3c-0.1,0-0.1,0.1,0,0.1l1.7,1c0.1,0,0.2,0,0.2,0l2.3-1.3C361,390.3,361,390.2,361,390.3L361,390.3z
			 M355,387.4l-1.7-1c-0.1,0-0.2,0-0.2,0l-1.9,1c-0.1,0,0,0.1,0,0.1l1.7,1c0.1,0,0.2,0,0.2,0L355,387.4
			C355.1,387.4,355.1,387.4,355,387.4L355,387.4z M356.4,386.6c0.1,0,0.2,0,0.2,0l1.5-0.9c0.1,0,0.1-0.1,0-0.1l-1.7-1
			c-0.1,0-0.2,0-0.2,0l-1.5,0.9c-0.1,0-0.1,0.1,0,0.1L356.4,386.6z M364,391.4l-1.7-1c-0.1,0-0.2,0-0.2,0l-2.9,1.7
			c-0.1,0-0.1,0.1,0,0.1l1.7,1c0.1,0,0.2,0,0.2,0l2.9-1.7C364.1,391.4,364.1,391.3,364,391.4L364,391.4z M365.4,393.4l-1.7-1
			c-0.1,0-0.2,0-0.2,0l-1.9,1c-0.1,0-0.1,0.1,0,0.1l1.7,1c0.1,0,0.2,0,0.2,0L365.4,393.4C365.5,393.4,365.5,393.4,365.4,393.4
			L365.4,393.4z M372.7,377.2c0.1,0,0.2,0,0.2,0l1.5-0.9c0.1,0,0.1-0.1,0-0.1l-1.7-1c-0.1,0-0.2,0-0.2,0l-1.5,0.9
			c-0.1,0-0.1,0.1,0,0.1L372.7,377.2z M368.3,379.7c0.1,0,0.2,0,0.2,0l1.5-0.9c0.1,0,0.1-0.1,0-0.1l-1.7-1c-0.1,0-0.2,0-0.2,0
			l-1.5,0.9c-0.1,0-0.1,0.1,0,0.1L368.3,379.7z M358.6,385.2c0.1,0,0.2,0,0.2,0l1.5-0.9c0.1,0,0.1-0.1,0-0.1l-1.7-1
			c-0.1,0-0.2,0-0.2,0l-1.5,0.9c-0.1,0-0.1,0.1,0,0.1L358.6,385.2z M370.5,378.4c0.1,0,0.2,0,0.2,0l1.5-0.9c0.1,0,0.1-0.1,0-0.1
			l-1.7-1c-0.1,0-0.2,0-0.2,0l-1.5,0.9c-0.1,0-0.1,0.1,0,0.1L370.5,378.4z M366.1,380.9c0.1,0,0.2,0,0.2,0l1.5-0.9
			c0.1,0,0.1-0.1,0-0.1l-1.7-1c-0.1,0-0.2,0-0.2,0l-1.5,0.9c-0.1,0-0.1,0.1,0,0.1L366.1,380.9z M366.6,393.5c-0.1,0-0.2,0-0.2,0
			l-2.3,1.3c-0.1,0-0.1,0.1,0,0.1l1.7,1c0.1,0,0.2,0,0.2,0l2.3-1.3c0.1,0,0.1-0.1,0-0.1L366.6,393.5z M363,382.7c0.1,0,0.2,0,0.2,0
			l1.5-0.9c0.1,0,0.1-0.1,0-0.1l-1.7-1c-0.1,0-0.2,0-0.2,0l-1.5,0.9c-0.1,0-0.1,0.1,0,0.1L363,382.7z M360.8,384c0.1,0,0.2,0,0.2,0
			l1.5-0.9c0.1,0,0.1-0.1,0-0.1l-1.7-1c-0.1,0-0.2,0-0.2,0l-1.5,0.9c-0.1,0-0.1,0.1,0,0.1L360.8,384z M407.2,370.1
			c-0.1,0-0.2,0-0.2,0l-3.7,2.1c-0.1,0-0.1,0.1,0,0.1l1.7,1c0.1,0,0.2,0,0.2,0l3.7-2.1c0.1,0,0.1-0.1,0-0.1L407.2,370.1z
			 M402.4,372.9c-0.1,0-0.2,0-0.2,0l-1.5,0.9c-0.1,0-0.1,0.1,0,0.1l1.7,1c0.1,0,0.2,0,0.2,0l1.5-0.9c0.1,0,0.1-0.1,0-0.1
			L402.4,372.9z M372.7,389.3l1.5-0.9c0.1,0,0.1-0.1,0-0.1l-1.7-1c-0.1,0-0.2,0-0.2,0l-1.5,0.9c-0.1,0-0.1,0.1,0,0.1l1.7,1
			C372.5,389.3,372.6,389.3,372.7,389.3L372.7,389.3z M398,375.4c-0.1,0-0.2,0-0.2,0l-1.5,0.9c-0.1,0-0.1,0.1,0,0.1l1.7,1
			c0.1,0,0.2,0,0.2,0l1.5-0.9c0.1,0,0.1-0.1,0-0.1L398,375.4z M409.4,368.8c-0.1,0-0.2,0-0.2,0l-1.5,0.9c-0.1,0-0.1,0.1,0,0.1l1.7,1
			c0.1,0,0.2,0,0.2,0l1.5-0.9c0.1,0,0.1-0.1,0-0.1L409.4,368.8z M413.3,368.6l-4.2-2.4c-0.1,0-0.2,0-0.2,0l-1.5,0.9
			c-0.1,0-0.1,0.1,0,0.1l4.2,2.4c0.1,0,0.2,0,0.2,0l1.5-0.9C413.4,368.6,413.4,368.6,413.3,368.6L413.3,368.6z M389.8,380.1
			c-0.1,0-0.2,0-0.2,0l-1.8,1.1c-0.1,0-0.1,0.1,0,0.1l1.7,1c0.1,0,0.2,0,0.2,0l1.8-1.1c0.1,0,0.1-0.1,0-0.1L389.8,380.1z
			 M395.3,376.9c-0.1,0-0.2,0-0.2,0l-2.3,1.3c-0.1,0-0.1,0.1,0,0.1l1.7,1c0.1,0,0.2,0,0.2,0l2.3-1.3c0.1,0,0.1-0.1,0-0.1
			L395.3,376.9z M384.7,383c-0.1,0-0.2,0-0.2,0l-12.3,7.1c-0.1,0-0.1,0.1,0,0.1l1.7,1c0.1,0,0.2,0,0.2,0l12.3-7.1
			c0.1,0,0.1-0.1,0-0.1L384.7,383z M371.7,390.6c-0.1,0-0.2,0-0.2,0l-1.9,1.1c-0.1,0-0.1,0.1,0,0.1l1.7,1c0.1,0,0.2,0,0.2,0l1.8-1.1
			c0.1,0,0.1-0.1,0-0.1L371.7,390.6z M387.3,381.6c-0.1,0-0.2,0-0.2,0l-1.9,1.1c-0.1,0-0.1,0.1,0,0.1l1.7,1c0.1,0,0.2,0,0.2,0
			l1.9-1.1c0.1,0,0.1-0.1,0-0.1L387.3,381.6z M369.2,392c-0.1,0-0.2,0-0.2,0l-1.9,1.1c-0.1,0-0.1,0.1,0,0.1l1.7,1c0.1,0,0.2,0,0.2,0
			l1.9-1.1c0.1,0,0.1-0.1,0-0.1L369.2,392z M392.4,378.6c-0.1,0-0.2,0-0.2,0l-1.9,1.1c-0.1,0-0.1,0.1,0,0.1l1.7,1c0.1,0,0.2,0,0.2,0
			l1.9-1.1c0.1,0,0.1-0.1,0-0.1L392.4,378.6z M400.2,374.1c-0.1,0-0.2,0-0.2,0l-1.5,0.9c-0.1,0-0.1,0.1,0,0.1l1.7,1
			c0.1,0,0.2,0,0.2,0l1.5-0.9c0.1,0,0.1-0.1,0-0.1L400.2,374.1z M405,370.6l1.5-0.9c0.1,0,0.1-0.1,0-0.1l-1.7-1c-0.1,0-0.2,0-0.2,0
			l-1.5,0.9c-0.1,0-0.1,0.1,0,0.1l1.7,1C404.8,370.7,404.9,370.7,405,370.6L405,370.6z M395.2,370.6l1.5-0.9c0.1,0,0.1-0.1,0-0.1
			l-1.7-1c-0.1,0-0.2,0-0.2,0l-1.5,0.9c-0.1,0-0.1,0.1,0,0.1l1.7,1C395,370.6,395.1,370.6,395.2,370.6L395.2,370.6z M390.2,379.1
			l4.4-2.5c0.1,0,0.1-0.1,0-0.1l-1.7-1c-0.1,0-0.2,0-0.2,0l-4.4,2.5c-0.1,0-0.1,0.1,0,0.1l1.7,1C390,379.2,390.1,379.2,390.2,379.1
			L390.2,379.1z M402.5,371.9c0.1,0,0.2,0,0.2,0l1.5-0.9c0.1,0,0.1-0.1,0-0.1l-1.7-1c-0.1,0-0.2,0-0.2,0l-1.5,0.9
			c-0.1,0-0.1,0.1,0,0.1L402.5,371.9z M400.3,370.5l1.5-0.9c0.1,0,0.1-0.1,0-0.1l-1.7-1c-0.1,0-0.2,0-0.2,0l-1.5,0.9
			c-0.1,0-0.1,0.1,0,0.1l1.7,1C400.1,370.5,400.2,370.5,400.3,370.5L400.3,370.5z M388,380.4l1.5-0.9c0.1,0,0.1-0.1,0-0.1l-1.7-1
			c-0.1,0-0.2,0-0.2,0l-1.5,0.9c-0.1,0-0.1,0.1,0,0.1l1.7,1C387.9,380.4,388,380.4,388,380.4z M397.7,374.7c0.1,0,0.2,0,0.2,0
			l1.5-0.9c0.1,0,0.1-0.1,0-0.1l-1.7-1c-0.1,0-0.2,0-0.2,0l-1.5,0.9c-0.1,0-0.1,0.1,0,0.1L397.7,374.7z M377.1,386.7l1.5-0.9
			c0.1,0,0.1-0.1,0-0.1l-1.7-1c-0.1,0-0.2,0-0.2,0l-1.5,0.9c-0.1,0-0.1,0.1,0,0.1l1.7,1C376.9,386.8,377,386.8,377.1,386.7
			L377.1,386.7z M379.3,385.4l1.5-0.9c0.1,0,0.1-0.1,0-0.1l-1.7-1c-0.1,0-0.2,0-0.2,0l-1.5,0.9c-0.1,0-0.1,0.1,0,0.1l1.7,1
			C379.1,385.5,379.2,385.5,379.3,385.4L379.3,385.4z M374.9,388l1.5-0.9c0.1,0,0.1-0.1,0-0.1l-1.7-1c-0.1,0-0.2,0-0.2,0l-1.5,0.9
			c-0.1,0-0.1,0.1,0,0.1l1.7,1C374.7,388,374.8,388,374.9,388L374.9,388z M383.7,382.9l1.5-0.9c0.1,0,0.1-0.1,0-0.1l-1.7-1
			c-0.1,0-0.2,0-0.2,0l-1.5,0.9c-0.1,0-0.1,0.1,0,0.1l1.7,1C383.5,383,383.6,383,383.7,382.9L383.7,382.9z M381.5,384.2l1.5-0.9
			c0.1,0,0.1-0.1,0-0.1l-1.7-1c-0.1,0-0.2,0-0.2,0l-1.5,0.9c-0.1,0-0.1,0.1,0,0.1l1.7,1C381.3,384.2,381.4,384.2,381.5,384.2
			L381.5,384.2z M385.8,381.7l1.5-0.9c0.1,0,0.1-0.1,0-0.1l-1.7-1c-0.1,0-0.2,0-0.2,0l-1.5,0.9c-0.1,0-0.1,0.1,0,0.1l1.7,1
			C385.7,381.7,385.8,381.7,385.8,381.7L385.8,381.7z M395.8,363c0.1,0,0.2,0,0.2,0l1.5-0.9c0.1,0,0.1-0.1,0-0.1l-0.5-0.3
			c-0.1,0-0.2,0-0.2,0l-1.5,0.9c-0.1,0-0.1,0.1,0,0.1L395.8,363z M385.1,370c0.1,0,0.2,0,0.2,0l1.5-0.9c0.1,0,0.1-0.1,0-0.1l-1.7-1
			c-0.1,0-0.2,0-0.2,0l-1.5,0.9c-0.1,0-0.1,0.1,0,0.1L385.1,370z M389.4,367.4c0.1,0,0.2,0,0.2,0l1.5-0.9c0.1,0,0.1-0.1,0-0.1
			l-1.7-1c-0.1,0-0.2,0-0.2,0l-1.5,0.9c-0.1,0-0.1,0.1,0,0.1L389.4,367.4z M382.4,371.5c0.1,0,0.2,0,0.2,0l1.5-0.9
			c0.1,0,0.1-0.1,0-0.1l-1.7-1c-0.1,0-0.2,0-0.2,0l-1.5,0.9c-0.1,0-0.1,0.1,0,0.1L382.4,371.5z M387.3,368.7c0.1,0,0.2,0,0.2,0
			l1.5-0.9c0.1,0,0.1-0.1,0-0.1l-1.7-1c-0.1,0-0.2,0-0.2,0l-1.5,0.9c-0.1,0-0.1,0.1,0,0.1L387.3,368.7z M378,374c0.1,0,0.2,0,0.2,0
			l1.5-0.9c0.1,0,0.1-0.1,0-0.1l-1.7-1c-0.1,0-0.2,0-0.2,0l-1.5,0.9c-0.1,0-0.1,0.1,0,0.1L378,374z M380.2,372.8c0.1,0,0.2,0,0.2,0
			l1.5-0.9c0.1,0,0.1-0.1,0-0.1l-1.7-1c-0.1,0-0.2,0-0.2,0l-1.5,0.9c-0.1,0-0.1,0.1,0,0.1L380.2,372.8z M391.5,365.5
			c0.1,0,0.2,0,0.2,0l1.5-0.9c0.1,0,0.1-0.1,0-0.1l-0.5-0.3c-0.1,0-0.2,0-0.2,0l-1.5,0.9c-0.1,0-0.1,0.1,0,0.1L391.5,365.5z
			 M398,361.7c0.1,0,0.2,0,0.2,0l1.5-0.9c0.1,0,0.1-0.1,0-0.1l-0.5-0.3c-0.1,0-0.2,0-0.2,0l-1.5,0.9c-0.1,0-0.1,0.1,0,0.1L398,361.7
			z M401.7,363.8c0.1,0,0.2,0,0.2,0l1.5-0.9c0.1,0,0.1-0.1,0-0.1l-1.7-1c-0.1,0-0.2,0-0.2,0l-1.5,0.9c-0.1,0-0.1,0.1,0,0.1
			L401.7,363.8z M407.1,369.4l1.5-0.9c0.1,0,0.1-0.1,0-0.1l-1.7-1c-0.1,0-0.2,0-0.2,0l-1.5,0.9c-0.1,0-0.1,0.1,0,0.1l1.7,1
			C407,369.5,407.1,369.5,407.1,369.4L407.1,369.4z M393.7,364.3c0.1,0,0.2,0,0.2,0l1.5-0.9c0.1,0,0-0.1,0-0.1l-0.5-0.3
			c-0.1,0-0.2,0-0.2,0l-1.5,0.9c-0.1,0-0.1,0.1,0,0.1L393.7,364.3z M375.8,375.3c0.1,0,0.2,0,0.2,0l1.5-0.9c0.1,0,0.1-0.1,0-0.1
			l-1.7-1c-0.1,0-0.2,0-0.2,0l-1.5,0.9c-0.1,0-0.1,0.1,0,0.1L375.8,375.3z"/>
		<path class="st15" d="M385.6,388.4l14.8-8.5c0.5-0.3,1.1-0.3,1.6,0l8.5,4.9c0.3,0.1,0.4,0.4,0.3,0.6c0,0.1-0.2,0.3-0.3,0.3
			l-14.9,8.6c-0.5,0.3-1.1,0.3-1.6,0l-8.4-4.9c-0.3,0-0.5-0.2-0.5-0.5S385.3,388.4,385.6,388.4z"/>
	</g>
	<g id="freepik--Mobile--inject-1--inject-5">
		<path class="st1" d="M238.3,381.7h32.6c1.6,0,2.9,1.3,2.9,2.9v66.2c0,1.6-1.3,2.9-2.9,2.9h-32.6c-1.6,0-2.9-1.3-2.9-2.9v-66.2
			C235.4,383,236.7,381.7,238.3,381.7z"/>
		<path class="st2" d="M238.4,386.1h32.4c1,0,1.9,0.8,1.9,1.9v59.3c0,1-0.8,1.9-1.9,1.9h-32.4c-1,0-1.9-0.8-1.9-1.9V388
			C236.5,387,237.3,386.1,238.4,386.1z"/>
		<path class="st7" d="M263,408.4l-0.1-0.2l0,0c-4.4-4.4-11.6-4.5-16.2-0.2l-0.2,0.2l-0.1,0.1c-4.6,4.5-4.6,11.9,0,16.5
			c4.5,4.6,11.9,4.6,16.5,0C267.4,420.3,267.4,413,263,408.4L263,408.4z M256.4,427.7c-0.4,0.1-0.9,0.1-1.3,0.1H254
			c-0.4,0-0.9-0.1-1.3-0.1c-5.5-0.9-9.5-5.6-9.6-11.1v-0.2c0-3,1.3-5.9,3.4-8l0.2-0.2c1.7-1.6,3.8-2.6,6-2.9
			c0.4-0.1,0.9-0.1,1.3-0.1h1.1c0.4,0,0.9,0.1,1.3,0.1c2.4,0.4,4.5,1.5,6.2,3.2l0.2,0.2c2,2.1,3.2,4.9,3.2,7.8v0.2
			C265.9,422.2,261.9,426.8,256.4,427.7L256.4,427.7z"/>
		<path class="st7" d="M254.6,428.6c-6.7,0-12.2-5.5-12.2-12.2c0-3.2,1.3-6.3,3.6-8.6l0.1-0.1l0.2-0.2c4.8-4.5,12.3-4.4,16.9,0.3
			l0,0l0.2,0.2l0,0c4.7,4.8,4.6,12.5-0.3,17.2C260.8,427.4,257.8,428.6,254.6,428.6z M254.6,405.5h-0.5c-0.4,0-0.8,0.1-1.2,0.1
			c-2.1,0.3-4.1,1.3-5.7,2.8l-0.2,0.2c-2.1,2-3.3,4.8-3.3,7.7v0.2c0,5.3,3.9,9.8,9.1,10.6c0.4,0.1,0.8,0.1,1.2,0.1c0.3,0,0.7,0,1,0
			c0.4,0,0.8-0.1,1.2-0.1l0,0c5.2-0.8,9.1-5.3,9.1-10.6v-0.2c0-2.8-1.1-5.4-3-7.4l-0.2-0.2c-1.6-1.6-3.7-2.7-5.9-3
			c-0.4-0.1-0.8-0.1-1.2-0.1L254.6,405.5z"/>
		<path class="st7" d="M263.2,408.2L263,408l0,0l-0.2-0.2l-0.2,0.2l-0.2,0.2c-0.6,0.6-1.4,1.1-2.1,1.6l-0.2,0.1
			c-1.1,0.6-2.2,1-3.4,1.2h-0.2c-0.5,0.1-1.1,0.1-1.7,0.1c-0.7,0-1.4-0.1-2.1-0.2h-0.2c-1.2-0.2-2.3-0.7-3.3-1.3l-0.2-0.1
			c-0.7-0.4-1.4-1-2-1.6l-0.2-0.2l-0.2-0.2l-0.2,0.2l-0.2,0.2l-0.2,0.2l0.2,0.2l0.2,0.2l0,0c0.7,0.7,1.4,1.2,2.2,1.7l0.2,0.1
			c1.1,0.6,2.3,1.1,3.5,1.4h0.3c0.7,0.1,1.5,0.2,2.3,0.2c0.6,0,1.2,0,1.8-0.1h0.2c1.3-0.2,2.5-0.6,3.6-1.2l0.2-0.1
			c0.8-0.5,1.6-1,2.3-1.7l0.2-0.2l0.2-0.2L263.2,408.2z"/>
		<path class="st7" d="M263.2,424.3l-0.2-0.2c-0.7-0.7-1.5-1.2-2.3-1.7l-0.2-0.1c-1.1-0.6-2.3-1-3.6-1.2h-0.3
			c-0.6-0.1-1.2-0.1-1.8-0.1c-0.8,0-1.5,0.1-2.3,0.2h-0.3c-1.2,0.3-2.4,0.7-3.5,1.4l-0.2,0.1c-0.8,0.5-1.5,1.1-2.2,1.7l0,0l-0.1,0.1
			l-0.2,0.2l0.2,0.2l0.2,0.2l0.2,0.2l0.2-0.2l0.2-0.2c0.6-0.6,1.3-1.1,2-1.6l0.2-0.1c1-0.6,2.1-1,3.3-1.3h0.2
			c0.7-0.1,1.4-0.2,2.1-0.2c0.6,0,1.1,0,1.7,0.1h0.2c1.2,0.2,2.3,0.6,3.4,1.2l0.2,0.1c0.8,0.4,1.5,1,2.1,1.6l0.2,0.2l0.2,0.2
			l0.2-0.2l0,0l0.2-0.2l0.2-0.2L263.2,424.3z"/>
		<path class="st7" d="M259,408.1c-1.2-2.3-2.7-3.6-4.4-3.6c-1.7,0-3.3,1.3-4.4,3.6c-2.3,5.3-2.3,11.4,0,16.7
			c1.2,2.3,2.7,3.6,4.4,3.6c1.7,0,3.3-1.3,4.4-3.6C261.4,419.5,261.4,413.4,259,408.1z M254.6,427.6c-1.4,0-2.8-1.1-3.9-3.2
			c-2.2-5.1-2.2-10.8,0-15.9c1-2.1,2.4-3.2,3.9-3.2s2.8,1.1,3.9,3.2c2.2,5.1,2.2,10.8,0,15.9C257.4,426.4,256,427.6,254.6,427.6z"/>
		<path class="st7" d="M266.1,416H243c-0.2,0-0.4,0.3-0.4,0.5s0.2,0.3,0.4,0.4h23.1c0.2,0,0.4-0.3,0.4-0.5S266.3,416.1,266.1,416z"
			/>
		<path class="st7" d="M255,428v-23.1c0-0.2-0.2-0.4-0.4-0.4s-0.4,0.2-0.4,0.4V428c0,0.2,0.2,0.4,0.4,0.4S255,428.2,255,428z"/>
		<path class="st15" d="M252.1,382.8h5.6c0.3,0,0.6,0.2,0.6,0.6c0,0.3-0.3,0.6-0.6,0.6l0,0h-5.6c-0.3,0-0.6-0.2-0.6-0.6l0,0
			C251.5,383.1,251.8,382.8,252.1,382.8z"/>
		<path class="st15" d="M261.8,382.8c0.3,0,0.6,0.2,0.6,0.5l0,0c0,0.3-0.3,0.6-0.6,0.6l0,0c-0.3,0-0.6-0.3-0.6-0.6
			C261.2,383.1,261.5,382.8,261.8,382.8L261.8,382.8z"/>
		<circle class="st15" cx="264.1" cy="383.4" r="0.6"/>
		<circle class="st15" cx="245.8" cy="383.4" r="0.6"/>
		<path class="st15" d="M248.1,382.8c0.3,0,0.6,0.3,0.6,0.6l0,0c0,0.3-0.3,0.6-0.6,0.6s-0.6-0.3-0.6-0.6l0,0
			C247.5,383.1,247.8,382.8,248.1,382.8L248.1,382.8z"/>
	</g>
	<g id="freepik--Computer--inject-1--inject-5">
		<g id="freepik--Screen--inject-1--inject-5">
			<path class="st15" d="M131.7,394.5l-11.1-6.4c-1-0.4-1.6-1.3-1.7-2.4c0-0.9,0-1.5,0-1.5l11.5-6.5c0.7-0.4,1.1-1.1,1.1-1.9v-13.7
				l19.4,11.2V387c0,0.8-0.4,1.5-1.1,1.9l-9.8,5.6C137.4,395.9,134.3,395.9,131.7,394.5z"/>
			<path class="st16" d="M146.2,389.4v1.5l3.6-2c0.7-0.4,1.1-1.1,1.1-1.9v-13.7l-3.7-2.1c-0.1,0.9-0.2,1.9-0.2,2.9l2.6,1.5v10.7
				c0,0.8-0.5,1.5-1.1,1.9L146.2,389.4z"/>
			<path class="st1" d="M149.6,386.2c0,0.8-0.5,1.5-1.1,1.9L140,393c-2.6,1.3-5.7,1.3-8.3,0l-11.1-6.4c-2.3-1.3-2.3-3.5,0-4.8
				l8.5-4.9c0.7-0.4,1.1-1.1,1.1-1.9v-10.7l19.4,11.2L149.6,386.2L149.6,386.2z"/>
			<path class="st14" d="M126.8,378.2L126.8,378.2l2.3-1.3c0.7-0.4,1.1-1.1,1.1-1.9v-10.7l19.4,11.2v10.7c0,0.8-0.5,1.5-1.1,1.9
				l-2.2,1.3L126.8,378.2z"/>
			<path class="st14" d="M118.9,384.2v1.5c0.1,1,0.7,2,1.7,2.4l11.1,6.4c1.2,0.7,2.6,1,4,1V394c-1.4,0-2.8-0.3-4-1l-11.1-6.4
				C119.6,386.2,119,385.2,118.9,384.2z"/>
			<path class="st1" d="M100.2,293.4v59.5c0.1,1,0.6,1.9,1.4,2.4l75.9,43.7l0.1,0.1l0,0c0.7,0.3,1.2-0.1,1.2-0.9v1.2
				c0.5,0,0.9-0.1,1.3-0.3c0.8-0.5,1.3-1.4,1.3-2.4v-59.5c-0.1-1-0.6-1.9-1.4-2.4l-75.8-43.7c-0.8-0.4-1.8-0.5-2.7,0
				c-0.7,0.5-1.2,1.2-1.3,2.1C100.2,293.3,100.2,293.3,100.2,293.4z"/>
			<path class="st14" d="M100.2,293.4v59.5c0.1,1,0.6,1.9,1.4,2.4l75.9,43.7l0.1,0.1l0,0c0.7,0.3,1.2-0.1,1.2-0.9v-59.5
				c-0.1-1-0.6-1.9-1.4-2.4l-75.8-43.7c-0.7-0.4-1.3-0.1-1.4,0.6C100.2,293.3,100.2,293.3,100.2,293.4z"/>
			<path class="st15" d="M178.9,398.3v-4l2.6-1.5v4c0,0.9-0.5,1.8-1.3,2.4c-0.4,0.2-0.8,0.3-1.3,0.3c-0.1,0-0.2,0-0.3,0h-0.3l0,0
				l-0.2-0.1l0,0H178l-0.2-0.1C178.4,399.4,178.9,399.1,178.9,398.3z"/>
			<path class="st1" d="M100.2,348.9v4.1c0.1,1,0.6,1.9,1.4,2.4l75.9,43.7l0.1,0.1l0,0c0.7,0.3,1.2-0.1,1.2-0.9v-4L100.2,348.9z"/>
			<path class="st15" d="M178.5,337.4c0.2,0.4,0.4,0.9,0.4,1.4v55.5l2.6-1.5v-55.5c0-0.5-0.2-0.9-0.4-1.4L178.5,337.4z"/>
			<path class="st2" d="M176.3,387.3v-47.7c0-0.6-0.3-1.1-0.8-1.4l-71.8-41.4c-0.4-0.3-0.8,0-0.8,0.5V345c0,0.6,0.3,1.1,0.8,1.4
				l71.8,41.4C175.9,388,176.3,387.8,176.3,387.3z"/>
			<path class="st7" d="M126.8,334.9c0.1,5,1.4,9.9,3.8,14.2c2.4,4.6,5.6,8.3,9.1,10.2s6.6,2.1,9,0.2s3.8-5.4,3.8-9.9
				c-0.1-5-1.4-9.9-3.7-14.3c0-0.1-0.1-0.1-0.1-0.2l-0.2-0.4c-2-3.9-5-7.3-8.7-9.6c-3.4-2-6.6-2-9-0.2l0,0l-0.2,0.1
				C128,327,126.8,330.4,126.8,334.9z M127,335.2v-0.4c0-4.4,1.4-7.7,3.5-9.4c0.1-0.1,0.1-0.1,0.2-0.1c2-1.4,4.6-1.7,6.8-0.7
				c0.5,0.2,1,0.4,1.4,0.6l0.6,0.3l0.6,0.4c0.5,0.3,1,0.6,1.4,1c2.7,2.2,4.9,5,6.6,8.1l0.2,0.4c2.3,4.3,3.6,9.1,3.8,14v0.4
				c-0.1,8.2-4.6,12.4-10.5,10.2c-0.5-0.2-1-0.4-1.4-0.6l-0.6-0.3l-0.6-0.4c-0.5-0.3-1-0.6-1.4-1C131.6,352.9,127.1,343.5,127,335.2
				L127,335.2z"/>
			<path class="st7" d="M130.1,349.4c-2.5-4.6-3.8-9.7-3.9-14.9c0-4.6,1.3-8.3,3.8-10.2l0,0l0.2-0.1l0,0c2.5-1.9,5.9-1.8,9.4,0.3
				c3.4,2,6.7,5.6,9.1,10.1l0.2,0.4l0.1,0.2c2.5,4.6,3.8,9.7,3.9,14.9c0,4.8-1.4,8.4-3.9,10.4s-5.9,1.8-9.5-0.2
				S132.6,354.3,130.1,349.4z M139,326c-0.4-0.2-0.9-0.4-1.3-0.6c-2.1-0.9-4.6-0.7-6.5,0.7l-0.2,0.1c-2.1,1.7-3.3,4.9-3.3,9v0.4
				c0.1,7.8,4.3,16.8,10,21.4l0,0c0.4,0.4,0.9,0.7,1.4,1c0.4,0.2,0.7,0.5,1.1,0.6c0.4,0.2,0.9,0.4,1.4,0.6c5.8,2.1,10-2,10-9.8
				c0-0.1,0-0.1,0-0.2s0-0.1,0-0.2c-0.1-4.7-1.4-9.2-3.6-13.3c-0.1-0.1-0.1-0.2-0.2-0.4c-1.6-3-3.7-5.6-6.3-7.7
				c-0.5-0.4-0.9-0.7-1.4-1l-0.6-0.4L139,326z"/>
			<path class="st7" d="M130.1,324.7l0.2-0.1l0,0l0.2-0.1l0.2,0.4c0.1,0.1,0.1,0.3,0.2,0.4c0.7,1.3,1.5,2.5,2.3,3.6l0.2,0.3
				c1.1,1.4,2.3,2.7,3.7,3.8l0.3,0.2c0.6,0.5,1.2,0.9,1.8,1.2c0.7,0.4,1.5,0.7,2.3,1l0.3,0.1c1.2,0.4,2.4,0.4,3.6,0.2h0.2
				c0.8-0.2,1.5-0.5,2.2-1l0.2-0.1l0.2-0.2l0.2,0.4l0.2,0.4l0.2,0.4l-0.2,0.2l-0.2,0.1l0,0c-0.7,0.5-1.5,0.9-2.4,1.1
				c-0.1,0-0.2,0-0.2,0.1c-1.3,0.2-2.6,0.2-3.9-0.2l-0.3-0.1c-0.9-0.3-1.7-0.7-2.5-1.1c-0.7-0.4-1.3-0.8-1.9-1.3l-0.3-0.2
				c-1.5-1.2-2.8-2.6-4-4.1l-0.3-0.3c-0.9-1.3-1.8-2.6-2.5-4c-0.1-0.1-0.1-0.3-0.2-0.4l-0.2-0.4L130.1,324.7z"/>
			<path class="st7" d="M130.1,348.4l0.2-0.1c0.8-0.5,1.6-0.9,2.5-1h0.3c1.4-0.2,2.7,0,4,0.5l0.3,0.1c0.7,0.3,1.3,0.6,1.9,0.9
				c0.9,0.5,1.7,1.1,2.5,1.7c0.1,0.1,0.2,0.1,0.3,0.2c1.4,1.3,2.7,2.7,3.9,4.2l0.2,0.3c0.9,1.2,1.7,2.5,2.4,3.9l0,0l0.2,0.3l0.2,0.4
				l-0.2,0.1l-0.2,0.1l-0.2,0.1l-0.2-0.4c-0.1-0.1-0.1-0.2-0.2-0.4c-0.6-1.2-1.4-2.4-2.2-3.6l-0.2-0.3c-1.1-1.5-2.3-2.8-3.6-4
				l-0.3-0.2c-0.7-0.6-1.5-1.2-2.3-1.6c-0.6-0.3-1.2-0.6-1.8-0.9l-0.3-0.1c-1.2-0.4-2.5-0.6-3.7-0.4h-0.2c-0.8,0.1-1.6,0.5-2.3,0.9
				l-0.2,0.1l-0.2,0.1l-0.2-0.4v-0.1l-0.2-0.3l-0.2-0.4V348.4z"/>
			<path class="st7" d="M132.8,338.4c0,4.5,0.6,9,1.9,13.4c1.3,4.1,3,7,4.9,8s3.6,0.2,4.9-2.4s1.9-6.5,1.9-11.1
				c0-4.5-0.6-9-1.9-13.4c-1.3-4.1-3-7-4.9-8s-3.6-0.2-4.9,2.4S132.8,333.8,132.8,338.4z M135.3,351.4c-1.2-4.1-1.8-8.4-1.8-12.7
				c0-4.4,0.6-8.1,1.8-10.6s2.6-3.2,4.2-2.3s3.1,3.5,4.2,7.2c1.2,4.1,1.8,8.4,1.8,12.7c0,4.4-0.6,8.1-1.8,10.6s-2.6,3.2-4.2,2.3
				S136.5,355.1,135.3,351.4z"/>
			<path class="st7" d="M126.9,334.4l25.3,14.6c0.3,0.2,0.4,0.5,0.4,0.9c0,0.3-0.2,0.5-0.4,0.4l-25.3-14.6c-0.3-0.2-0.4-0.5-0.4-0.9
				C126.4,334.4,126.7,334.2,126.9,334.4z"/>
			<path class="st7" d="M139.1,358.9v-33.8c0-0.3,0.2-0.5,0.5-0.3s0.4,0.5,0.5,0.8v33.8c0,0.3-0.2,0.4-0.5,0.3
				C139.3,359.6,139.1,359.3,139.1,358.9z"/>
		</g>
		<g id="freepik--Keyboard--inject-1--inject-5">
			<g id="freepik--keyboard--inject-1--inject-5">
				<path class="st2" d="M76,390.9c0-0.3,0.2-0.5,0.4-0.6L94.2,380c0.7-0.3,1.5-0.3,2.1,0l54.4,31.4c0.2,0.1,0.4,0.3,0.4,0.6v1.9
					c0,0.3-0.2,0.5-0.4,0.6l-17.8,10.3c-0.7,0.3-1.5,0.3-2.1,0l-54.4-31.4c-0.2-0.1-0.4-0.3-0.4-0.6C76,392.6,76,391.2,76,390.9z"/>
				<path class="st17" d="M76,390.9c0-0.3,0.2-0.5,0.4-0.6L94.2,380c0.7-0.3,1.5-0.3,2.1,0l54.4,31.4c0.2,0.1,0.4,0.3,0.4,0.6v1.9
					c0,0.3-0.2,0.5-0.4,0.6l-17.8,10.3c-0.7,0.3-1.5,0.3-2.1,0l-54.4-31.4c-0.2-0.1-0.4-0.3-0.4-0.6C76,392.6,76,391.2,76,390.9z"/>
				<path class="st2" d="M133,422.9l17.8-10.2c0.3-0.1,0.5-0.5,0.4-0.8c-0.1-0.2-0.2-0.3-0.4-0.4l-54.4-31.4c-0.7-0.3-1.5-0.3-2.1,0
					l-17.8,10.3c-0.3,0.1-0.5,0.5-0.4,0.8c0.1,0.2,0.2,0.3,0.4,0.4l54.4,31.4C131.5,423.3,132.3,423.3,133,422.9z"/>
				<path class="st16" d="M133,422.9l17.8-10.2c0.3-0.1,0.5-0.5,0.4-0.8c-0.1-0.2-0.2-0.3-0.4-0.4l-54.4-31.4
					c-0.7-0.3-1.5-0.3-2.1,0l-17.8,10.3c-0.3,0.1-0.5,0.5-0.4,0.8c0.1,0.2,0.2,0.3,0.4,0.4l54.4,31.4
					C131.5,423.3,132.3,423.3,133,422.9z"/>
				<path class="st2" d="M132,423.2v1.9c0.3,0,0.7-0.1,1-0.3l17.8-10.3c0.2-0.1,0.4-0.3,0.4-0.6V412c0,0.3-0.2,0.5-0.4,0.6
					L133,422.8C132.7,423.1,132.3,423.2,132,423.2z"/>
				<path class="st18" d="M132,423.2v1.9c0.3,0,0.7-0.1,1-0.3l17.8-10.3c0.2-0.1,0.4-0.3,0.4-0.6V412c0,0.3-0.2,0.5-0.4,0.6
					L133,422.8C132.7,423.1,132.3,423.2,132,423.2z"/>
				<path class="st14" d="M128,404.2l-2,1.2l-0.1,0.1l1.8,1.1l2.1-1.3L128,404.2z"/>
				<path class="st14" d="M130.4,405.6l-2,1.2c0,0,0,0,0,0.1l0,0l1.8,1l2.1-1.3L130.4,405.6z"/>
				<path class="st14" d="M123.9,401.8l-2,1.2c0,0-0.1,0-0.1,0.1l3,1.8l2.1-1.3L123.9,401.8z"/>
				<path class="st14" d="M121.4,400.4l-2,1.2c0,0,0,0,0,0.1l1.8,1.1l2-1.3L121.4,400.4z"/>
				<path class="st14" d="M89.5,393.9l1.8,1.1l2.1-1.3l-1.8-1.1L89.5,393.9C89.6,393.8,89.5,393.9,89.5,393.9L89.5,393.9z"/>
				<path class="st14" d="M119,399l-2,1.2l-0.1,0.1l1.8,1.1l2.1-1.3L119,399z"/>
				<path class="st14" d="M127.1,406.8l-1.8-1.1l-2,1.2c0,0,0,0,0,0.1l1.8,1.1L127.1,406.8z"/>
				<path class="st14" d="M110.5,402.9l1.8,1.1l2.1-1.3l-1.8-1.1L110.5,402.9C110.6,402.8,110.5,402.9,110.5,402.9z"/>
				<path class="st14" d="M125.6,408.4l1.8,1.1l2.1-1.3l-1.8-1.1L125.6,408.4C125.6,408.3,125.6,408.4,125.6,408.4z"/>
				<path class="st14" d="M108.1,401.5l1.8,1.1l2.1-1.3l-1.8-1.1L108.1,401.5C108.1,401.4,108.1,401.4,108.1,401.5z"/>
				<path class="st14" d="M105.6,400.1l1.8,1.1l2.1-1.3l-1.8-1.1L105.6,400.1C105.6,400,105.6,400,105.6,400.1z"/>
				<path class="st14" d="M115.4,405.7l3.9,2.3l4.9-2.9l-2.1-1.2l-2.6,1.5c-0.1,0-0.1,0-0.2,0s-0.1,0-0.2,0l-1.6-0.9L115.4,405.7
					C115.5,405.6,115.4,405.7,115.4,405.7z"/>
				<path class="st14" d="M114.1,396.1l-2,1.2c0,0,0,0,0,0.1l1.8,1.1l2.1-1.3L114.1,396.1z"/>
				<path class="st14" d="M112.9,404.3l1.8,1.1l2.1-1.3L115,403L112.9,404.3C112.9,404.2,112.9,404.3,112.9,404.3z"/>
				<path class="st14" d="M90.6,388.2l1.8,1.1l2.2-1.3l-1.8-1.1l-2,1.2C90.7,388.1,90.7,388.1,90.6,388.2L90.6,388.2z"/>
				<path class="st14" d="M94.6,384.9l-2,1.2c0,0,0,0,0,0.1l0,0l1.8,1l2.1-1.3L94.6,384.9z"/>
				<path class="st14" d="M88.5,390.2L88.5,390.2l1.8,1l2.1-1.3l-1.8-1L88.5,390.2C88.6,390.1,88.5,390.1,88.5,390.2z"/>
				<path class="st14" d="M84.6,391.1l1.8,1.1l2.1-1.3l-1.8-1.1L84.6,391.1C84.6,391,84.6,391.1,84.6,391.1z"/>
				<path class="st14" d="M97,386.3l-2,1.2c0,0,0,0,0,0.1l1.8,1.1l2.1-1.3L97,386.3z"/>
				<path class="st14" d="M87,392.5l1.8,1.1l2.1-1.3l-1.8-1.1L87,392.5C87.1,392.5,87.1,392.5,87,392.5z"/>
				<path class="st14" d="M104.4,390.5l-2,1.2c0,0,0,0,0,0.1l1.8,1.1l2.1-1.3L104.4,390.5z"/>
				<path class="st14" d="M106.8,391.9l-2,1.2v0.1l1.8,1.1l2.1-1.3L106.8,391.9z"/>
				<path class="st14" d="M109.2,393.3l-2,1.2l-0.1,0.1l1.8,1.1l2.1-1.3L109.2,393.3z"/>
				<path class="st14" d="M101.9,389.1l-2,1.2v0.1l1.7,1l2.1-1.3L101.9,389.1z"/>
				<path class="st14" d="M111.7,394.7l-2,1.2c0,0,0,0,0,0.1l1.8,1.1l2.1-1.3L111.7,394.7z"/>
				<path class="st14" d="M99.5,387.7l-2,1.2c0,0,0,0,0,0.1l1.8,1.1l2.1-1.3L99.5,387.7z"/>
				<path class="st14" d="M116.6,397.5l-2,1.2c0,0,0,0,0,0.1l1.8,1.1l2.1-1.3L116.6,397.5z"/>
				<path class="st14" d="M117.2,401.1l-2,1.2c0,0-0.1,0-0.1,0.1v0.1l1.8,1l2.1-1.3L117.2,401.1z"/>
				<path class="st14" d="M135.9,408.7l-2,1.2c-0.1,0-0.1,0.1-0.1,0.1l1.8,1.1l2.1-1.3L135.9,408.7z"/>
				<path class="st14" d="M138.3,410.1l-2,1.2c0,0,0,0,0,0.1l1.8,1.1l2.1-1.3L138.3,410.1z"/>
				<path class="st14" d="M114.7,399.7l-2,1.2c0,0,0,0,0,0.1l1.8,1.1l2.1-1.3L114.7,399.7z"/>
				<path class="st14" d="M140.7,411.5l-2,1.2c-0.1,0-0.1,0.1-0.1,0.1l1.8,1.1l2.1-1.3L140.7,411.5z"/>
				<path class="st14" d="M117.5,403.7L117.5,403.7l1.8,1l2.1-1.3l-1.8-1L117.5,403.7C117.6,403.7,117.5,403.7,117.5,403.7z"/>
				<path class="st14" d="M133.1,410.3l-2,1.2c-0.1,0-0.1,0.1-0.1,0.1l1.8,1.1l2.1-1.3L133.1,410.3z"/>
				<path class="st14" d="M138,413.1l-2,1.2l-0.1,0.1l1.8,1l2.1-1.3L138,413.1z"/>
				<path class="st14" d="M133.5,412.9l1.8,1.1l2.1-1.3l-1.9-1.1L133.5,412.9L133.5,412.9z"/>
				<path class="st14" d="M135.6,417.3L135.6,417.3v0.1l1.8,1l4.9-2.9l-1.9-1.1L135.6,417.3z"/>
				<path class="st14" d="M112.3,398.3l-2,1.2c0,0,0,0,0,0.1l0,0l1.8,1l2.1-1.3L112.3,398.3z"/>
				<path class="st14" d="M130.7,414.5L130.7,414.5l1.8,1l2.1-1.1l-1.9-1.1L130.7,414.5L130.7,414.5z"/>
				<path class="st14" d="M133.1,415.9l1.8,1.1l2.1-1.3l-1.9-1.1L133.1,415.9L133.1,415.9z"/>
				<path class="st14" d="M100,391.2l-2,1.2l-0.1,0.1l1.8,1.1l2.1-1.3L100,391.2z"/>
				<path class="st14" d="M95.2,388.4l-2,1.2c-0.1,0-0.1,0.1-0.1,0.1l0,0l1.8,1l2.1-1.3L95.2,388.4z"/>
				<path class="st14" d="M93.4,393l1.8,1.1l2.1-1.3l-1.8-1.1L93.4,393C93.4,392.9,93.4,393,93.4,393L93.4,393z"/>
				<path class="st14" d="M91,391.6l1.8,1.1l2.1-1.3l-1.8-1L91,391.6L91,391.6z"/>
				<path class="st14" d="M95.9,394.4L95.9,394.4l1.8,1l2.1-1.3L98,393l-2,1.2C95.9,394.4,95.9,394.4,95.9,394.4z"/>
				<path class="st14" d="M109.8,396.8l-2,1.2c0,0,0,0,0,0.1l0,0l1.8,1l2.1-1.3L109.8,396.8z"/>
				<path class="st14" d="M100.7,397.2l1.8,1.1l2.1-1.3l-1.8-1.1L100.7,397.2C100.8,397.2,100.7,397.2,100.7,397.2z"/>
				<path class="st14" d="M98.3,395.8l1.8,1.1l2.1-1.3l-1.8-1.1L98.3,395.8C98.4,395.8,98.3,395.8,98.3,395.8z"/>
				<path class="st14" d="M104.9,394l-2,1.2c0,0-0.1,0-0.1,0.1l1.8,1.1l2.1-1.3L104.9,394z"/>
				<path class="st14" d="M97.6,389.8l-2,1.2l-0.1,0.1l1.8,1.1l2.1-1.3L97.6,389.8z"/>
				<path class="st14" d="M107.4,395.4l-2,1.2c0,0-0.1,0-0.1,0.1l1.8,1.1l2.1-1.3L107.4,395.4z"/>
				<path class="st14" d="M102.5,392.6l-2,1.2v0.1l0,0l1.8,1l2.1-1.3L102.5,392.6z"/>
				<path class="st14" d="M103.2,398.7l1.8,1.1l2.1-1.3l-1.8-1.1L103.2,398.7C103.2,398.6,103.2,398.6,103.2,398.7z"/>
				<path class="st14" d="M132.9,407l-2,1.2c0,0-0.1,0-0.1,0.1l1.8,1.1l2.1-1.3L132.9,407z"/>
				<path class="st14" d="M94,384.5l-1.8-1.1l-2,1.2c0,0,0,0,0,0.1l0,0l1.8,1L94,384.5z"/>
				<path class="st14" d="M92.1,386.6l-2.8-1.6l-2,1.2c0,0,0,0,0,0.1l0,0l2.7,1.6L92.1,386.6z"/>
				<path class="st14" d="M97.7,382.8l-2.2-1.3l-2,1.2c0,0,0,0,0,0.1l2.2,1.3L97.7,382.8z"/>
				<path class="st14" d="M86.1,389.5l-2.2-1.3l-2,1.2l-0.1,0.1l2.2,1.3L86.1,389.5z"/>
				<path class="st14" d="M90,388.6l-3.4-2l-2,1.2c0,0,0,0,0,0.1l0,0l3.3,1.9L90,388.6z"/>
				<path class="st14" d="M97.3,385l1.8,1.1l2.1-1.3l-1.8-1.1L97.3,385C97.3,384.9,97.3,385,97.3,385L97.3,385z"/>
				<path class="st14" d="M81.1,389.8l-2,1.2c0,0-0.1,0-0.1,0.1l2.7,1.6l2.1-1.3L81.1,389.8z"/>
				<path class="st14" d="M99.7,386.4l1.8,1.1l2.1-1.3l-1.8-1.1L99.7,386.4C99.8,386.3,99.8,386.4,99.7,386.4z"/>
				<path class="st14" d="M110.6,392.7L110.6,392.7l1.8,1l2.1-1.3l-1.9-1.1L110.6,392.7C110.6,392.6,110.6,392.6,110.6,392.7z"/>
				<path class="st14" d="M113,394.1l1.8,1.1l2.1-1.3l-1.8-1.1L113,394.1C113.1,394,113,394.1,113,394.1z"/>
				<path class="st14" d="M108.1,391.3L108.1,391.3l1.8,1l2.1-1.3l-1.8-1.1l-2,1.2C108.2,391.2,108.1,391.2,108.1,391.3z"/>
				<path class="st14" d="M104.6,389.2L104.6,389.2l1.8,1l2.1-1.3l-1.8-1.1l-2,1.2h-0.1C104.5,389.2,104.6,389.2,104.6,389.2z"/>
				<path class="st14" d="M102.2,387.8l1.8,1.1l2.1-1.3l-1.8-1.1L102.2,387.8C102.3,387.8,102.2,387.8,102.2,387.8z"/>
				<path class="st14" d="M129.7,417.9l-2,1.2c0,0,0,0,0,0.1l0,0l1.8,1l2.1-1.3L129.7,417.9z"/>
				<path class="st14" d="M117,410.5l-2,1.2l-0.1,0.1l1.8,1.1l2.1-1.3L117,410.5z"/>
				<path class="st14" d="M124.8,415.1l-2,1.2c0,0-0.1,0-0.1,0.1l0,0l4.2,2.5l2.1-1.3L124.8,415.1z"/>
				<path class="st14" d="M119.4,411.9l-2,1.2l-0.1,0.1l1.8,1.1l2.1-1.3L119.4,411.9z"/>
				<path class="st14" d="M121.9,413.4l-2,1.2c-0.1,0-0.1,0.1-0.1,0.1l1.8,1.1l2.1-1.3L121.9,413.4z"/>
				<path class="st14" d="M115.5,395.5L115.5,395.5l1.8,1l2.1-1.3l-1.8-1.1l-2,1.2C115.5,395.4,115.5,395.4,115.5,395.5z"/>
				<path class="st14" d="M136.7,418.8l-1.8-1.1l-4.8,2.8c0,0,0,0,0,0.1l0,0l1.8,1L136.7,418.8z"/>
				<path class="st14" d="M87.3,393.4l-2,1.2l-0.1,0.1l2.2,1.3l2.1-1.3L87.3,393.4z"/>
				<path class="st14" d="M90.1,395l-2,1.2l-0.1,0.1l0,0l13.9,8l2.1-1.3L90.1,395z"/>
				<path class="st14" d="M91.9,395.3l1.8,1.1l2.1-1.3L94,394L91.9,395.3C92,395.3,91.9,395.3,91.9,395.3z"/>
				<path class="st14" d="M84.4,391.8l-2,1.2c0,0-0.1,0-0.1,0.1l2.2,1.3l2.1-1.3L84.4,391.8z"/>
				<path class="st14" d="M104.6,403.4l-2,1.2v0.1l0,0l2.2,1.3l2.1-1.3L104.6,403.4z"/>
				<path class="st14" d="M110.3,406.7l-2,1.2c0,0,0,0,0,0.1l0,0l2.2,1.3l2.1-1.3L110.3,406.7z"/>
				<path class="st14" d="M107.4,405l-2,1.2c0,0,0,0,0,0.1l2.2,1.3l2.1-1.3L107.4,405z"/>
				<path class="st14" d="M113.1,408.3l-2,1.2l-0.1,0.1l0,0l2.7,1.5l2.1-1.3L113.1,408.3z"/>
				<path class="st14" d="M128,409.8L128,409.8l1.8,1l2.1-1.3l-1.8-1.1l-2,1.2C128.1,409.7,128,409.8,128,409.8z"/>
				<path class="st14" d="M120.1,411.6L120.1,411.6l1.8,1l2.1-1.3l-1.8-0.9L120.1,411.6L120.1,411.6z"/>
				<path class="st14" d="M111.5,406.6l5,2.9l2.1-1.3l-5-2.9L111.5,406.6C111.6,406.5,111.6,406.5,111.5,406.6
					C111.5,406.5,111.5,406.6,111.5,406.6z"/>
				<path class="st14" d="M125.5,414.7L125.5,414.7l1.8,1l2.1-1.3l-1.8-1L125.5,414.7C125.6,414.6,125.5,414.6,125.5,414.7
					L125.5,414.7z"/>
				<path class="st14" d="M127.9,416.1L127.9,416.1l1.8,1l2.1-1.3l-1.8-1.1l-2,1.2C128,416,127.9,416.1,127.9,416.1z"/>
				<path class="st14" d="M109,405.2l1.8,1.1l2.1-1.3l-1.8-1.1L109,405.2C109.1,405.1,109,405.2,109,405.2z"/>
				<path class="st14" d="M128.3,413.1L128.3,413.1l1.8,1l2.1-1.3l-1.8-1.1l-2,1.2C128.3,413.1,128.3,413.1,128.3,413.1z"/>
				<path class="st14" d="M96.8,398.2l1.8,1.1l2.1-1.3l-1.8-1.1L96.8,398.2C96.8,398.1,96.8,398.1,96.8,398.2z"/>
				<path class="st14" d="M106.6,403.8l1.8,1.1l2.1-1.3l-1.8-1.1L106.6,403.8C106.7,403.7,106.6,403.8,106.6,403.8z"/>
				<path class="st14" d="M94.4,396.8L94.4,396.8l1.8,1l2.1-1.3l-1.8-1.1l-2,1.2C94.4,396.6,94.4,396.7,94.4,396.8
					C94.4,396.7,94.4,396.7,94.4,396.8z"/>
				<path class="st14" d="M99.3,399.6l1.8,1.1l2.1-1.3l-1.8-1.1L99.3,399.6C99.3,399.5,99.3,399.5,99.3,399.6z"/>
				<path class="st14" d="M101.7,401L101.7,401l1.8,1l2.1-1.2l-1.8-1.1L101.7,401C101.7,400.9,101.7,400.9,101.7,401z"/>
				<path class="st14" d="M104.1,402.4L104.1,402.4l1.8,1l2.1-1.3l-1.8-1.1l-2,1.2C104.2,402.3,104.1,402.3,104.1,402.4L104.1,402.4
					z"/>
				<path class="st14" d="M121.4,398.9l1.8,1.1l2.1-1.3l-1.8-1.1L121.4,398.9C121.4,398.8,121.4,398.9,121.4,398.9L121.4,398.9z"/>
				<path class="st14" d="M130.4,417.5L130.4,417.5l1.8,1l2.1-1.1l-1.8-1.1L130.4,417.5L130.4,417.5z"/>
				<path class="st14" d="M126.3,401.8l1.8,1.1l2.1-1.3l-1.8-1.1L126.3,401.8C126.4,401.7,126.3,401.7,126.3,401.8z"/>
				<path class="st14" d="M131.7,404.9l1.8,1.1l2.1-1.3l-1.9-1.1L131.7,404.9C131.8,404.8,131.7,404.8,131.7,404.9z"/>
				<path class="st14" d="M129.3,403.5l1.8,1.1l2.1-1.3l-1.8-1.1L129.3,403.5C129.3,403.4,129.3,403.4,129.3,403.5L129.3,403.5z"/>
				<path class="st14" d="M119,397.5l1.8,1.1l2.1-1.3l-1.8-1.1L119,397.5C119,397.4,119,397.5,119,397.5z"/>
				<path class="st14" d="M123.9,400.3L123.9,400.3l1.8,1l2.1-1.3l-1.8-1.1l-2,1.2C123.9,400.2,123.9,400.3,123.9,400.3z"/>
				<path class="st14" d="M134.2,406.3l1.8,1.1l2.1-1.3l-1.9-1.1L134.2,406.3C134.2,406.2,134.2,406.3,134.2,406.3z"/>
				<path class="st14" d="M145.2,411.8l1.8,1.1l1.1-0.7l-1.9-1.1L145.2,411.8L145.2,411.8z"/>
				<path class="st14" d="M141.1,414.2l1.8,1.1l2.1-1.3l-1.9-1.1L141.1,414.2C141.1,414.1,141.1,414.2,141.1,414.2z"/>
				<path class="st14" d="M137.8,407.6L137.8,407.6l1.8,1l1.1-0.7l-1.9-1.1l-1,0.6c0,0-0.1,0-0.1,0.1
					C137.8,407.5,137.8,407.6,137.8,407.6z"/>
				<path class="st14" d="M140.3,409L140.3,409l1.8,1l1.1-0.7l-1.8-1.1l-1,0.6C140.3,408.9,140.2,408.9,140.3,409L140.3,409z"/>
				<path class="st14" d="M142.7,410.4l1.8,1.1l1.1-0.7l-1.9-1.1L142.7,410.4L142.7,410.4z"/>
			</g>
		</g>
	</g>
</g>
<g id="freepik--character-2--inject-1--inject-5">
	<g id="freepik--Character--inject-1--inject-5">
		<path class="st14" d="M444.8,413.3c-0.1,0.7-0.1,1.5,0.1,2.2c0.4,0.9,1,1.6,1.8,2.1c0.6,0.5,1.1,1.1,1.5,1.8
			c0.4,0.7,0.9,1.4,1.5,1.9c0.8,0.4,1.7,0.5,2.5,0.2c0.6-0.3,0.9-0.5,0.8-1.5s-3.2-1.4-3.2-1.4L444.8,413.3z"/>
		<path class="st1" d="M452.6,416.8c0.3,0.1,0.3,0.6,0.4,1.6c0,0.8,0.4,1.9-0.7,2.4c-1,0.4-2.1,0.1-2.8-0.6c-0.7-1-1.4-1.9-2.2-2.8
			c-0.9-1-1.8-1.3-2.2-3.2c-0.3-1.2,0-1.7,0.8-2.1c1.1-0.5,2.9,1.1,3.8,1.3S452.3,416.7,452.6,416.8z"/>
		<path class="st19" d="M449.6,413.5l-0.1-0.1c-1,0.1-2,0.7-2.5,1.6c-0.1,0.3,0.3,0.6,0.6,0.3c0.5-0.9,1.4-1.5,2.5-1.6
			C449.9,413.6,449.8,413.5,449.6,413.5z"/>
		<path class="st19" d="M450.3,414c-1,0.1-1.8,0.7-2.3,1.6c-0.1,0.3,0.3,0.6,0.6,0.3c0.4-0.8,1.1-1.3,2-1.5
			C450.6,414.3,450.4,414.2,450.3,414z"/>
		<path class="st19" d="M445.5,415.6c0,0,0.1-2.3,3.1-2.6l0.2,0.1c-0.3-0.6-0.9-1-1.5-1.2c-0.9-0.3-1.8,0-2.4,0.7
			C444.5,413.3,445,415.2,445.5,415.6z"/>
		<path class="st20" d="M452.6,415.1v1.9c-0.9,0.6-2.2,0.6-3.1,0.1c-0.1-0.1-0.2-2-0.2-2H452.6z"/>
		<path class="st14" d="M428.8,427.8c-0.2,0.9,0.1,1.3,1.2,1.9c1.4,0.7,3.1,0.8,4.7,0.3c1.8-0.5,2.7-1.3,3.5-1.5s2.6-0.2,3.4-0.4
			s0.7-0.6,0.7-1.5L428.8,427.8z"/>
		<path class="st1" d="M441.5,422.3c0,0,0.4,1.1,0.5,2c0.2,0.8,0.3,1.7,0.1,2.6c-0.3,0.6-1.3,0.9-2.9,0.9c-1.3,0.2-2.6,0.6-3.7,1.3
			c-1.1,0.5-2.3,0.7-3.5,0.5c-1.4-0.2-2.9-1-3.1-1.6s-0.3-1,3-2.4c0,0,3.9-1.4,5.5-3.2L441.5,422.3z"/>
		<path class="st19" d="M435.1,429.3c0,0-0.3-2.9-2.6-3.7c-2.1-0.7-3.9,0.8-3.7,2.2C428.9,428.7,431.5,430.7,435.1,429.3z"/>
		<path class="st19" d="M433.1,425.1c0.6,0.1,1.2,0.3,1.6,0.7c0.7,0.6,0.7,0.9,0.7,0.9c0.1,0.1,0.3,0.2,0.5,0
			c0.1-0.1,0.1-0.2,0.1-0.3c-0.2-1-1.1-1.7-2-1.7C433.6,424.6,433.3,424.8,433.1,425.1z"/>
		<path class="st19" d="M434.4,424.4c0.6,0,1.2,0.2,1.6,0.6c0.7,0.6,0.7,1,0.7,1c0.1,0.1,0.4,0.1,0.5,0s0.1-0.2,0.1-0.3
			c-0.2-1-1-1.7-2-1.7C434.9,423.9,434.6,424.1,434.4,424.4z"/>
		<path class="st19" d="M435.8,423.7c0.6,0,1.2,0.2,1.6,0.5c0.7,0.5,0.7,1,0.7,1c0.2,0.2,0.6,0.1,0.6-0.3c-0.3-1-1.2-1.6-2.2-1.6
			C436.2,423.2,435.9,423.4,435.8,423.7z"/>
		<path class="st20" d="M441.5,420.9c0,0,0,0.9,0,1.4s-0.6,1.3-2.2,1.3c-1.1,0-1.9-0.4-1.9-1.3V421L441.5,420.9z"/>
		<path class="st20" d="M456.3,364.9c0.3-12.7-0.7-15.7-4-18l-1.3,7.3c0,0,1.5,8.6,1.4,11.5c-0.1,2.6-0.4,5.2-1,7.7
			c-0.1,0.4-0.3,0.7-0.7,0.9c-0.7,0.5-1.3,1.1-1.9,1.8c-0.5,0.5-0.9,0.7-0.9,0.8c0.2,0.4,0.7,0.6,1.1,0.4s0.8-0.4,1.2-0.7
			c-0.3,0.8-0.7,1.5-1.3,2.1c-1.2,1.5-1.3,2.4,1.2,2.4c1.5,0,2.7-0.9,3.9-4.3c0.4-1.2,0.8-2.5,1.1-3.8
			C455.6,370.4,456,367.7,456.3,364.9z"/>
		<path class="st15" d="M455.7,369.4c-0.1,1.3-0.3,2.5-0.7,3.7c-1.2,0.1-2.5-0.1-3.5-0.7l0.5-3.5L455.7,369.4z"/>
		<path class="st14" d="M451,346.2c1.8-0.2,4,2.4,4.8,5.4s1,13.5-0.1,17.8c-1.3,0.3-2.6,0.2-3.7-0.5c0.1-2.5,0-4.9-0.3-7.4
			c-0.5-2.4-1.6-8.1-1.4-9S451,346.2,451,346.2z"/>
		<path class="st2" d="M454.6,399.5c-0.1-3.8-0.5-3.8-1.2-6.8c0.3-3.6,0.6-6.6,0.7-10.5c0.1-4.2,0-9.2,0-13.7
			c-4.6-0.3-16.1-4.1-17.5,3.1c-0.4,5.8,0.2,17.4,0.2,25.3s0,15.8,0.5,24.3c1.5,0.6,3.1,0.4,4.5-0.3c1.1-5,1.9-10.1,2.5-15.1
			c0.5-4-0.2-4.3,0-7.5s0.5-6.6,0.8-9.7s0.6-5.7,0.7-8.7c0.1-0.1,0.3-0.1,0.4-0.2c0.2,3.7,0.3,6.9,0.6,10.6s0.6,6.6,1,10.9
			c0.4,4,0.5,9.3,1.3,14.1c1.1,0.5,2.7,1,3.7,0.1C453.6,411.1,454.8,403.3,454.6,399.5z"/>
		<g class="st21">
			<path d="M454.6,399.5c-0.1-3.8-0.5-3.8-1.2-6.8c0.3-3.6,0.6-6.6,0.7-10.5c0.1-4.2,0-9.2,0-13.7c-4.6-0.3-16.1-4.1-17.5,3.1
				c-0.4,5.8,0.2,17.4,0.2,25.3s0,15.8,0.5,24.3c1.5,0.6,3.1,0.4,4.5-0.3c1.1-5,1.9-10.1,2.5-15.1c0.5-4-0.2-4.3,0-7.5
				s0.5-6.6,0.8-9.7s0.6-5.7,0.7-8.7c0.1-0.1,0.3-0.1,0.4-0.2c0.2,3.7,0.3,6.9,0.6,10.6s0.6,6.6,1,10.9c0.4,4,0.5,9.3,1.3,14.1
				c1.1,0.5,2.7,1,3.7,0.1C453.6,411.1,454.8,403.3,454.6,399.5z"/>
		</g>
		<g class="st10">
			<path d="M445.8,379.8c2.3-1.1,4.4-2.4,6.4-4c-1.3,1.7-2.8,3.1-4.6,4.2c0,1-0.9,9-0.9,8.8c-0.2-1.8-0.3-6.3-0.6-9
				C446,379.8,445.9,379.8,445.8,379.8z"/>
		</g>
		<path class="st22" d="M453.6,348.8c-0.5-1.6-2.5-3.3-4.5-2.9c-2.9,0.5-5.9,1.2-8.7,2.2c-1.8,0.6-3.5,2.2-3.6,8.2
			c0,0-0.6,13.9-0.6,16.6c3.8,1.5,7.9,1.9,11.9,1.2c5.5-1.2,6.1-3.5,6.1-3.5s0.1-10-0.1-14.3C454,352.6,454,349.9,453.6,348.8z"/>
		<polygon class="st20" points="442.1,343.9 442.7,349.5 447.7,349.5 447.1,343.2 		"/>
		<path class="st14" d="M441,347.9c0.4-0.8,0.6-1.8,1.3-1.9c1.2,0.2,2.5,0.1,3.7-0.1c0.6-0.2,1.1-0.6,1.5-1.1
			c0.6-0.3,1.3-0.1,1.8,0.3c0.7,0.8,2.9,2.1,3.5,4.3s1,6.5-1.6,7.3c-3.9,1.2-6.6-0.6-7.5-3.8C442.7,349.5,443,348.5,441,347.9z"/>
		<path class="st15" d="M444,348.2c0.6,0.9,1.3,4.6,2.8,6.1s4.7,1.1,5.3-0.4c-0.1,1.2-1.2,2.1-2.4,2.1c-2.3,0.2-4.4-1.4-4.9-3.6
			C444.2,350.2,444.3,349.2,444,348.2z"/>
		<path class="st23" d="M438.1,337.4c0,0-1.3,2-1.1,2.2s1.1,0.4,1.1,0.4V337.4z"/>
		<path class="st20" d="M441.6,331.8c-2.6,0.6-3.4,1.8-3.5,6c-0.2,4.4,0.3,5.8,0.9,6.4c0.4,0.4,2.6,0.4,3.6,0.1
			c1.4-0.4,4.4-1.6,5.8-3.8c1.6-2.6,2-6.2,0.2-7.6C446,330.9,442.7,331.5,441.6,331.8z"/>
		<path class="st15" d="M437.8,333.8c0.5,0.3,1.2,0.4,1.8,0.3c-0.1,0-0.1,0.5-0.1,0.6c0,0.2,0.2,0.4,0.3,0.5
			c0.3,0.3,0.8,0.4,1.2,0.2c-0.4,0.3-0.1,1.2,0,1.5s0.2,0.9,0.7,1.1c0,0,0.4-1.6,1.8-1.5s1.6,1.9,0.8,3s-1.7,0.7-1.7,0.7
			c0.1,1.3,0.4,2.5,1.1,3.6c3.1,0.7,6.2-1,7.2-3.9c1.6-3.8,1.6-7.1-0.8-8c0.3-1.4-0.4-2.7-1.6-3.4c-1-0.6-2.3-0.6-3.3,0
			c-0.1,0-0.4-0.6-0.4-0.7c-0.2-0.3-0.5-0.6-0.9-0.7c-1.1-0.4-2.3-0.3-3.3,0.4c-0.5,0.4-0.8,0.9-0.9,1.5c-0.9-0.1-1.9,0.1-2.7,0.6
			c-0.9,0.8-1.1,2.1-0.5,3.1C436.9,333.2,437.3,333.5,437.8,333.8z"/>
		<path class="st15" d="M450.2,332.5l1.6-1c-0.3-0.4-0.8-0.6-1.3-0.3S450,332.1,450.2,332.5z"/>
		<path class="st20" d="M418.5,358.4c0.9,0.4,10.9,7.8,12.5,7s9.6-10.3,9.6-10.3c1.4-2.1,1.4-4.9,0-7c-1.8,0-3.6,0.9-4.6,2.4
			c-1.4,2-6.6,8.7-6.6,8.7c-1.4-0.7-6.6-2.7-7.8-3.3c-0.3-0.1-0.6-0.3-0.9-0.6c-0.6-0.6-0.5-1.9-0.5-2.7c0-0.4,0-0.7,0-1
			s0.1-1.5-0.6-1.1c-0.1,0.1-0.3,0.2-0.4,0.3c-0.1,0.2-0.2,0.3-0.3,0.5c-0.1,0.4-0.1,0.9-0.2,1.4c0,0.1-0.1,0.1-0.1,0.2
			c-0.1,0-0.2,0.1-0.2,0.1c-1.1,0-2.1-1.6-2.7-2.4c-0.2-0.4-0.5-0.8-0.8-1c-0.7-0.2-1.4,0.1-1.7,0.7c-0.5,0.7-0.7,1.6-0.5,2.5
			c0.1,1.2,0.6,2.2,1.5,3.1C415.4,356.9,416.9,357.8,418.5,358.4z"/>
		<path class="st15" d="M425.8,357.7l-2.5-1c-1.3,0.8-2,2.2-2,3.7l2.4,1.6L425.8,357.7z"/>
		<path class="st14" d="M441,347.9c-1.4-0.1-2.8,0.3-3.9,1c-1.4,1.3-7.8,9.9-7.8,9.9l-3.5-1.2c-1.4,1-2.1,2.6-2.1,4.2
			c0,0,2.5,1.8,3.8,2.6c1,0.7,2.1,1.1,3.3,1.3c0.6,0,9.5-9.7,9.5-9.7c1-1.3,1.6-2.9,1.6-4.5C441.9,350.3,441.5,349,441,347.9z"/>
	</g>
</g>
<g id="freepik--character-1--inject-1--inject-5">
	<g id="freepik--character--inject-1--inject-5">
		<path class="st20" d="M67.1,349.4c-2.2,0.4-3.2,1.2-4.5,4.3s-4,10.5-4,12.6c0,1.6,5.6,9.1,5.3,9c-0.1,0,3.2-3.8,3.2-3.8l-3.4-5.3
			l2.7-5.2L67.1,349.4z"/>
		<path class="st1" d="M72,415.2c0.1,0.7,0.1,1.5-0.1,2.2c-0.4,0.9-1,1.6-1.8,2.1c-0.6,0.5-1,1.1-1.4,1.8c-0.4,0.7-0.9,1.3-1.5,1.9
			c-0.8,0.4-1.6,0.5-2.4,0.2c-0.6-0.3-0.9-0.5-0.8-1.5s3.1-1.4,3.1-1.4L72,415.2z"/>
		<path class="st2" d="M64.3,418.7c-0.3,0.1-0.3,0.6-0.4,1.6c0,0.8-0.3,1.9,0.7,2.4c1,0.4,2,0.2,2.8-0.6c0.7-1,1.4-1.9,2.2-2.8
			c0.9-1,1.8-1.3,2.2-3.1c0.3-1.2,0.1-1.7-0.8-2.1c-1.1-0.5-2.9,1.1-3.8,1.3C66.3,415.6,64.5,418.6,64.3,418.7z"/>
		<path class="st5" d="M64.3,418.7c-0.3,0.1-0.3,0.6-0.4,1.6c0,0.8-0.3,1.9,0.7,2.4c1,0.4,2,0.2,2.8-0.6c0.7-1,1.4-1.9,2.2-2.8
			c0.9-1,1.8-1.3,2.2-3.1c0.3-1.2,0.1-1.7-0.8-2.1c-1.1-0.5-2.9,1.1-3.8,1.3C66.3,415.6,64.5,418.6,64.3,418.7z"/>
		<path class="st19" d="M67.2,415.4h0.2c1,0.1,2,0.7,2.4,1.6c0.2,0.3-0.3,0.6-0.6,0.3c-0.5-0.9-1.4-1.5-2.4-1.6
			C66.9,415.6,67.1,415.5,67.2,415.4z"/>
		<path class="st19" d="M66.5,416c1,0.1,1.8,0.7,2.3,1.6c0.2,0.3-0.3,0.6-0.6,0.3c-0.4-0.8-1.1-1.3-2-1.5
			C66.3,416.2,66.4,416.1,66.5,416z"/>
		<path class="st19" d="M71.2,417.5c0,0-0.1-2.2-3.1-2.6l-0.2,0.1c0.3-0.6,0.9-1,1.5-1.1c0.8-0.3,1.8,0,2.3,0.7
			C72.3,415.3,71.8,417.1,71.2,417.5z"/>
		<path class="st1" d="M86.1,430.7c0.2,0.9-0.1,1.3-1.2,1.9c-1.4,0.7-3.1,0.8-4.6,0.3c-1.8-0.5-2.7-1.3-3.4-1.5s-2.6-0.2-3.4-0.4
			s-0.7-0.6-0.7-1.5L86.1,430.7z"/>
		<path class="st2" d="M73.4,425.2c0,0-0.3,1.1-0.5,2c-0.2,0.8-0.3,1.7-0.1,2.5c0.3,0.6,1.3,0.9,2.8,0.9c1.3,0.2,2.6,0.6,3.7,1.3
			c1.1,0.5,2.3,0.7,3.5,0.5c1.4-0.2,2.9-1,3.1-1.6s0.3-1-3-2.4c0,0-3.8-1.4-5.4-3.2L73.4,425.2z"/>
		<g class="st10">
			<path d="M73.4,425.2c0,0-0.3,1.1-0.5,2c-0.2,0.8-0.3,1.7-0.1,2.5c0.3,0.6,1.3,0.9,2.8,0.9c1.3,0.2,2.6,0.6,3.7,1.3
				c1.1,0.5,2.3,0.7,3.5,0.5c1.4-0.2,2.9-1,3.1-1.6s0.3-1-3-2.4c0,0-3.8-1.4-5.4-3.2L73.4,425.2z"/>
		</g>
		<path class="st19" d="M79.8,432.2c0,0,0.3-2.8,2.6-3.6c2.1-0.7,3.9,0.8,3.7,2.1C85.9,431.6,83.4,433.7,79.8,432.2z"/>
		<path class="st19" d="M81.8,428c-0.6,0.1-1.1,0.3-1.6,0.7c-0.7,0.6-0.7,0.9-0.7,0.9c-0.1,0.1-0.4,0.1-0.5,0s-0.1-0.2-0.1-0.3
			c0.2-1,1-1.7,2-1.7C81.3,427.6,81.6,427.7,81.8,428z"/>
		<path class="st19" d="M80.5,427.4c-0.6,0-1.2,0.2-1.6,0.6c-0.7,0.6-0.7,1-0.7,1c-0.1,0.1-0.4,0.1-0.5,0s-0.1-0.2-0.1-0.3
			c0.2-1,1-1.7,2-1.7C80,426.9,80.3,427.1,80.5,427.4z"/>
		<path class="st19" d="M79.2,426.7c-0.6,0-1.2,0.1-1.6,0.5c-0.7,0.5-0.7,1-0.7,1c-0.1,0.1-0.4,0.1-0.5,0s-0.1-0.2-0.1-0.3
			c0.3-1,1.2-1.6,2.2-1.6C78.7,426.2,79,426.4,79.2,426.7z"/>
		<path class="st20" d="M64.3,417.1v1.9c0.9,0.6,2.1,0.6,3.1,0.1c0-0.1,0.2-2,0.2-2H64.3z"/>
		<path class="st20" d="M73.4,423.9v1.4c0,0.5,0.6,1.3,2.2,1.3c1.1,0,1.9-0.3,1.9-1.3V424L73.4,423.9z"/>
		<path class="st1" d="M62.2,400.7c-0.1-2,0.3-4,0.9-5.8c0,0-0.6-5-1-11.2c-0.6-9,1.5-11.9,3.3-16.1c0,0,14.6-1,14.8,5.6
			c0.3,8.9,0.1,24.8-0.1,27.7s-0.2,0.2-0.9,6c-0.6,4.6-1.7,17-1.7,17c-1.3,0.7-2.8,0.6-4.1-0.1c0,0-1.3-15.1-1.1-18.4
			c0-1.7,0.1-3.4,0.4-5.1c0,0-1.8-13.2-2.1-15.3c0,0-0.3,3.8-0.5,6.7s-0.2,5.2-0.8,11.1c-0.5,4.7-1.6,14.8-1.6,14.8
			c-1.1,0.5-2.4,0.4-3.4-0.3C64.3,417.4,62.1,404,62.2,400.7z"/>
		<path class="st14" d="M70.6,385l-0.3-3.2c-1.7-0.3-3.4-0.9-4.8-1.8c0.9,1.2,2.3,2,3.8,2.4l0.6,3.1l0.2,6.2L70.6,385z"/>
		<polygon class="st20" points="75.1,347.3 74.4,353.4 69,352.9 69.6,346.2 		"/>
		<path class="st20" d="M63.8,352.4c0.6-1.6,1.9-3.3,4-2.9l1.5,0.3c0.1,1.4,2.7,2.1,5.3,1.3c0.8,0.2,1.5,0.5,2.2,0.7
			c1.9,0.7,3.5,4.3,3.6,9.5s-0.9,13.5-0.9,13.5s-3.4,4.8-10.6,2.5c-5.2-1.7-6.1-3.2-6.1-3.2s1.8-4.3,3.1-7.9
			C63.1,358.6,62.9,354.7,63.8,352.4z"/>
		<path class="st9" d="M63.8,352.4c0.6-1.6,1.9-3.3,4-2.9l1.5,0.3c0.1,1.4,2.7,2.1,5.3,1.3c0.8,0.2,1.5,0.5,2.2,0.7
			c1.9,0.7,3.5,4.3,3.6,9.5s0.2,20.9,0.2,20.9s-1.5-1-2.6-5.9c-0.5,4.5-4.5,7.7-9,7.2c-0.5-0.1-1-0.1-1.4-0.3
			c-5.2-1.7-5.4-4-5.7-6.5c0.3-2,2.1-6.7,4.1-10.5C63.1,358.6,62.9,354.7,63.8,352.4z"/>
		<path class="st15" d="M79.1,339.6c0.7-1.5,0.5-3.2-0.4-4.5c-1.8-2.8-5.3-3.3-9.3-2.2c-2.9,0.9-5,3.5-5.1,6.6c-0.2,3,8.2,5.2,8,7.3
			L79.1,339.6z"/>
		<path class="st23" d="M79.3,340.7c0,0,1.1,1.8,1,2c-0.3,0.2-0.6,0.3-0.9,0.4L79.3,340.7z"/>
		<path class="st15" d="M79,341.8c-0.8,0-1.4-0.6-1.4-1.4s0.6-1.4,1.4-1.4s1.4,0.6,1.4,1.4l0,0C80.4,341.1,79.8,341.8,79,341.8z
			 M79,339.2c-0.7,0-1.2,0.5-1.2,1.2s0.5,1.2,1.2,1.2s1.2-0.5,1.2-1.2l0,0C80.3,339.7,79.7,339.2,79,339.2L79,339.2L79,339.2z"/>
		<path class="st20" d="M75.8,334.9c1.1,0.6,3.1,1.8,3.5,6s-0.6,5.9-1.2,6.4c-0.4,0.4-2.5,0.5-3.6,0.1c-2.3-0.8-4.2-2.3-5.5-4.3
			c-1.5-2.7-1.8-6.2,0.1-7.6C71.1,334.3,73.6,334,75.8,334.9z"/>
		<path class="st23" d="M75.3,346.8l-0.2,0.9c0.9,0.2,1.9,0.1,2.8-0.1c-0.3,0-0.7,0-1-0.1C76.3,347.2,75.8,347,75.3,346.8z"/>
		<path class="st15" d="M75.7,340.1c1.5-0.6,2.6-1.9,2.8-3.5c0.4-2.8-3-4-3-4L75.7,340.1z"/>
		<path class="st15" d="M76.1,335.1c0,0,0.9,4-0.4,6.5c0,0-0.7-1.6-2-1.2c-0.9,0.4-1.4,1.4-1,2.4c0.1,0.3,0.3,0.6,0.6,0.8
			c0.5,0.4,1.2,0.4,1.8,0c-0.4,1.2-1.1,2.3-2,3.2c0,0-3.5,2.1-7-1.8c-3.1-3.5-2.2-9.8,2.3-11.2C71,332.9,73.9,333.4,76.1,335.1z"/>
		<path class="st20" d="M90.3,361.4c0.8-0.9,0.9-2.8,1.9-4.2s0.8-2.7,1.5-2.1s0.2,2.8,0.2,2.8c0.6,1.1,1,2.2,1.3,3.4
			c0.1,1.1-2.9,4-2.9,4L90.3,361.4z"/>
		<path class="st20" d="M93.8,357.7c0,0,1.2,1.7,6.8-0.5c1.5-0.6,0.5,2.7-1.4,4s-3.9,1.6-5.6,2.8C93.5,363.9,93.8,357.7,93.8,357.7z
			"/>
		<path class="st20" d="M76.3,351.6c2.4,0.4,3.6,0.7,4.9,3.8C82.8,359.1,86,366,86,366l4.3-4.6c0,0,0.6-0.9,1.8,1s0.6,2.4,0.6,2.4
			s-5,6.7-5.9,7.5s-2.4,0.2-3.4-1.1s-6.2-9.7-6.2-9.7S74.1,354.9,76.3,351.6z"/>
		<path class="st15" d="M64.6,337.4c-1,2.4-1.8,12.7-0.1,16c1.7,3.3,6.7,5.5,9.9,4.4c2-0.7,4.6-2.4,3-4.8c-0.4-0.6-0.9-1.1-1.5-1.6
			c-0.5-0.4-0.9-1-1.1-1.6c-0.7-1.5,0.3-6.1,0.3-6.2s-0.5,1.9-4.2,0.9C69.3,344.1,64.6,337.4,64.6,337.4z"/>
	</g>
</g>
</svg>
